<svg width="200" height="200" viewBox="0 0 200 200" fill="none" xmlns="http://www.w3.org/2000/svg">
<path d="M50.8721 154.877C50.5918 154.877 50.3086 154.799 50.0561 154.635C45.8462 151.9 43.333 147.253 43.333 142.207V28.4059C43.333 20.2618 49.8994 13.6359 57.9702 13.6359H122.694C126.907 13.6359 131.027 15.3639 133.999 18.3771L139.035 23.483C139.617 24.0724 139.611 25.0221 139.021 25.6041C138.429 26.1857 137.48 26.1798 136.9 25.5895L131.863 20.4835C129.451 18.0382 126.109 16.6359 122.694 16.6359H57.9702C51.5532 16.6359 46.333 21.9156 46.333 28.4059V142.207C46.333 146.234 48.3359 149.94 51.6909 152.119C52.3857 152.57 52.5825 153.5 52.1313 154.194C51.8437 154.637 51.3628 154.877 50.8721 154.877Z" fill="#909090"/>
<path d="M143.449 156.978H81.7246C80.896 156.978 80.2246 156.306 80.2246 155.478C80.2246 154.65 80.896 153.978 81.7246 153.978H143.449C149.866 153.978 155.086 148.697 155.086 142.207V87.7648C155.086 86.9362 155.758 86.2648 156.586 86.2648C157.415 86.2648 158.086 86.9362 158.086 87.7648V142.207C158.086 150.352 151.52 156.978 143.449 156.978Z" fill="#909090"/>
<path d="M93.4395 59.5182H65.9756C65.147 59.5182 64.4756 58.8468 64.4756 58.0182C64.4756 57.1896 65.147 56.5182 65.9756 56.5182H93.4395C94.2681 56.5182 94.9395 57.1896 94.9395 58.0182C94.9395 58.8468 94.2681 59.5182 93.4395 59.5182Z" fill="#909090"/>
<path d="M111.108 74.7726H65.9756C65.147 74.7726 64.4756 74.1012 64.4756 73.2726C64.4756 72.444 65.147 71.7726 65.9756 71.7726H111.108C111.936 71.7726 112.608 72.444 112.608 73.2726C112.608 74.1012 111.936 74.7726 111.108 74.7726Z" fill="#909090"/>
<path d="M97.4731 90.7052H65.9756C65.147 90.7052 64.4756 90.0338 64.4756 89.2052C64.4756 88.3766 65.147 87.7052 65.9756 87.7052H97.4731C98.3018 87.7052 98.9731 88.3766 98.9731 89.2052C98.9731 90.0338 98.3018 90.7052 97.4731 90.7052Z" fill="#909090"/>
<path d="M99.0068 105.959H65.9756C65.147 105.959 64.4756 105.287 64.4756 104.459C64.4756 103.631 65.147 102.959 65.9756 102.959H99.0068C99.8354 102.959 100.507 103.631 100.507 104.459C100.507 105.287 99.8354 105.959 99.0068 105.959Z" fill="#909090"/>
<path d="M119.391 121.892H65.9756C65.147 121.892 64.4756 121.22 64.4756 120.392C64.4756 119.564 65.147 118.892 65.9756 118.892H119.391C120.219 118.892 120.891 119.564 120.891 120.392C120.891 121.22 120.219 121.892 119.391 121.892Z" fill="#909090"/>
<path d="M180.493 60.3449L172.161 63.7062C162.077 67.774 154.082 75.7702 150.016 85.855L147.701 91.5972C147.416 92.3032 146.416 92.3032 146.132 91.5972L143.817 85.855C139.75 75.7702 131.756 67.774 121.672 63.7062L113.339 60.345C112.634 60.0603 112.634 59.0609 113.34 58.7762L120.184 56.0161C130.27 51.9484 138.267 43.9506 142.333 33.8635L146.132 24.4391C146.417 23.733 147.416 23.7329 147.701 24.4389L151.505 33.8709C155.572 43.9536 163.566 51.9479 173.648 56.015L180.493 58.7761C181.199 59.0609 181.199 60.0602 180.493 60.3449Z" fill="#147AF3"/>
<path d="M132.787 97.208L129.462 98.5491C125.439 100.172 122.249 103.362 120.627 107.386L119.703 109.677C119.59 109.958 119.191 109.958 119.078 109.677L118.154 107.386C116.532 103.362 113.342 100.172 109.319 98.5491L105.994 97.2081C105.713 97.0945 105.713 96.6957 105.994 96.5822L108.725 95.481C112.749 93.8581 115.94 90.6672 117.562 86.6428L119.078 82.8827C119.191 82.601 119.59 82.601 119.704 82.8827L121.221 86.6457C122.844 90.6684 126.033 93.8579 130.056 95.4805L132.787 96.5821C133.068 96.6957 133.068 97.0944 132.787 97.208Z" fill="#147AF3"/>
<path d="M71.4267 196.252C70.5551 196.252 69.7192 195.863 69.1401 195.149L57.0571 180.233L37.4321 183.062C36.1533 183.249 34.9492 182.621 34.3647 181.469C33.7802 180.316 33.9873 178.975 34.892 178.052L69.3271 142.94C70.1748 142.075 71.4467 141.814 72.5649 142.271C73.685 142.728 74.4087 143.805 74.4087 145.015V193.282C74.4087 194.555 73.6337 195.651 72.434 196.076C72.1015 196.194 71.7617 196.252 71.4267 196.252ZM57.6865 177.126C58.1352 177.126 58.5649 177.327 58.852 177.682L71.4707 193.26L71.4082 145.007L37.0341 180.151L57.4726 177.142C57.5439 177.131 57.6157 177.126 57.6865 177.126Z" fill="#909090"/>
</svg>
