<svg width="36" height="25" viewBox="0 0 36 25" fill="none" xmlns="http://www.w3.org/2000/svg">
<mask id="mask0_4030_44198" style="mask-type:alpha" maskUnits="userSpaceOnUse" x="10" y="7" width="18" height="18">
<path d="M12.6 9H12.4C11.6268 9 11 9.6268 11 10.4V10.6C11 11.3732 11.6268 12 12.4 12H12.6C13.3732 12 14 11.3732 14 10.6V10.4C14 9.6268 13.3732 9 12.6 9Z" fill="#222222"/>
<path d="M12.6 15H12.4C11.6268 15 11 15.6268 11 16.4V16.6C11 17.3732 11.6268 18 12.4 18H12.6C13.3732 18 14 17.3732 14 16.6V16.4C14 15.6268 13.3732 15 12.6 15Z" fill="#222222"/>
<path d="M12.6 21H12.4C11.6268 21 11 21.6268 11 22.4V22.6C11 23.3732 11.6268 24 12.4 24H12.6C13.3732 24 14 23.3732 14 22.6V22.4C14 21.6268 13.3732 21 12.6 21Z" fill="#222222"/>
<path d="M26.5 22H15.5C15.2239 22 15 22.2239 15 22.5V23.5C15 23.7761 15.2239 24 15.5 24H26.5C26.7761 24 27 23.7761 27 23.5V22.5C27 22.2239 26.7761 22 26.5 22Z" fill="#222222"/>
<path d="M20.6205 11.2812L20.6719 12.7027C20.6865 13.1069 20.9108 13.4743 21.2637 13.672L22.5047 14.3671L21.0832 14.4185C20.679 14.4331 20.3116 14.6574 20.114 15.0103L19.4189 16.2513L19.3675 14.8298C19.3528 14.4256 19.1285 14.0582 18.7756 13.8606L17.5347 13.1654L18.9561 13.114C19.3603 13.0994 19.7277 12.8751 19.9254 12.5222L20.6205 11.2812Z" fill="#222222"/>
<path d="M25.4063 7L25.4771 8.99459C25.4972 9.56179 25.806 10.0773 26.2918 10.3546L28.0002 11.33L26.0433 11.4022C25.4869 11.4227 24.9811 11.7374 24.709 12.2326L23.7521 13.9739L23.6813 11.9793C23.6612 11.4121 23.3524 10.8966 22.8666 10.6193L21.1582 9.64387L23.1151 9.57175C23.6715 9.55124 24.1773 9.2365 24.4494 8.74132L25.4063 7Z" fill="#222222"/>
<path d="M26.5 16H21.0502L20.5527 16.8877C20.3193 17.3047 19.8818 17.5518 19.4189 17.5518C19.3174 17.5518 19.2158 17.54 19.1133 17.5156C18.5469 17.3789 18.1406 16.8818 18.1201 16.2988L18.1092 16H15.5C15.2239 16 15 16.2239 15 16.5V17.5C15 17.7761 15.2239 18 15.5 18H26.5C26.7761 18 27 17.7761 27 17.5V16.5C27 16.2239 26.7761 16 26.5 16Z" fill="#222222"/>
<path d="M17.165 11.9323C17.2681 11.8977 17.374 11.8711 17.4873 11.8672L18.8291 11.8184L19.5945 10.3912C19.684 10.2312 19.8098 10.1056 19.9495 10H15.5C15.2239 10 15 10.2239 15 10.5V11.5C15 11.7761 15.2239 12 15.5 12H16.9865C17.0446 11.9727 17.1029 11.9509 17.165 11.9323Z" fill="#222222"/>
</mask>
<g mask="url(#mask0_4030_44198)">
<rect x="10" y="7" width="18" height="18" fill="#222222"/>
</g>
</svg>
