<svg width="16" height="16" viewBox="0 0 16 16" fill="none" xmlns="http://www.w3.org/2000/svg">
<mask id="mask0_585_350255" style="mask-type:alpha" maskUnits="userSpaceOnUse" x="0" y="0" width="16" height="16">
<g clip-path="url(#clip0_585_350255)">
<path fill-rule="evenodd" clip-rule="evenodd" d="M9.36527 3.66406L9.41096 4.92758C9.42396 5.28689 9.62334 5.61343 9.93703 5.78914L11.0401 6.40702L9.77659 6.45271C9.41728 6.46571 9.09074 6.66508 8.91503 6.97877L8.29715 8.08186L8.25146 6.81834C8.23847 6.45903 8.03909 6.13249 7.7254 5.95678L6.62231 5.3389L7.88583 5.29321C8.24514 5.28021 8.57168 5.08084 8.74739 4.76715L9.36527 3.66406Z" fill="#222222"/>
<path fill-rule="evenodd" clip-rule="evenodd" d="M11.8238 6.84614C11.7561 6.84614 11.6867 6.83833 11.6181 6.82184C11.5955 6.81641 11.5775 6.80263 11.5556 6.79547V14.222H2.66671V5.27919H5.724C5.96923 5.27919 6.16845 5.08018 6.16845 4.83474V1.77756H8.62635C8.62765 1.72428 8.62147 1.66569 8.62939 1.61838C8.68104 1.31065 8.86203 1.04894 9.08621 0.888672H5.89578C5.65999 0.888672 5.43397 0.982316 5.2672 1.14898L2.03825 4.37804C1.87148 4.54471 1.77783 4.77083 1.77783 5.00662V14.6664C1.77783 14.912 1.97684 15.1109 2.22228 15.1109H12.0001C12.2455 15.1109 12.4445 14.912 12.4445 14.6664V6.59039C12.2791 6.75249 12.0565 6.84614 11.8238 6.84614ZM5.33338 2.34006V4.44423H3.22921L5.33338 2.34006Z" fill="#222222"/>
<path fill-rule="evenodd" clip-rule="evenodd" d="M13.2944 -0.241211L13.3573 1.53176C13.3752 2.03594 13.6497 2.49414 14.0815 2.74069L15.6001 3.6077L13.8607 3.67181C13.366 3.69004 12.9165 3.96981 12.6746 4.40997L11.824 5.95781L11.7611 4.18484C11.7432 3.68066 11.4687 3.22246 11.0369 2.97591L9.51831 2.1089L11.2577 2.04479C11.7524 2.02656 12.2019 1.74679 12.4438 1.30663L13.2944 -0.241211Z" fill="#222222"/>
</g>
</mask>
<g mask="url(#mask0_585_350255)">
<rect width="16" height="16" fill="#222222"/>
</g>
<defs>
<clipPath id="clip0_585_350255">
<rect width="16" height="16" fill="white"/>
</clipPath>
</defs>
</svg>
