<svg width="36" height="25" viewBox="0 0 36 25" fill="none" xmlns="http://www.w3.org/2000/svg">
<mask id="mask0_1593_32980" style="mask-type:alpha" maskUnits="userSpaceOnUse" x="10" y="7" width="18" height="18">
<g clip-path="url(#clip0_1593_32980)">
<path fill-rule="evenodd" clip-rule="evenodd" d="M25.5138 7.22861L25.1438 10.0307C25.1121 10.2709 25.191 10.5125 25.3584 10.6876L27.1401 12.5516L24.5666 12.3854C24.3249 12.3698 24.0891 12.4646 23.9255 12.6433L22.0168 14.7279L22.3835 11.9232C22.4149 11.6835 22.336 11.4425 22.1691 11.2676L20.3901 9.40408L22.9608 9.56947C23.2021 9.58499 23.4375 9.49046 23.601 9.31233L25.5138 7.22861Z" fill="#222222"/>
<path fill-rule="evenodd" clip-rule="evenodd" d="M24.6818 13.5946L22.902 15.5383C22.6693 15.7924 22.3459 15.928 22.0166 15.928C21.8455 15.928 21.6728 15.8914 21.5105 15.8158C21.0358 15.5948 20.7592 15.0916 20.8271 14.5723L21.169 11.9577L19.5223 10.2327C19.2063 9.90168 19.1195 9.42469 19.2725 9H12C10.8954 9 10 9.89539 10 11V18C10 19.1046 10.8954 20 12 20H13V24.3965C13 24.5345 13.112 24.6465 13.2501 24.6464C13.3165 24.6464 13.3801 24.62 13.427 24.573L18 20H24C25.1046 20 26 19.1045 26 18V13.6801L24.6818 13.5946ZM17.9125 17.3055C17.6439 17.2881 17.3819 17.3935 17.2002 17.592L15.8821 19.0315L16.1354 17.0943C16.1702 16.828 16.0826 16.5602 15.8972 16.3659L14.6772 15.0879L16.4401 15.2014C16.7082 15.2186 16.9697 15.1135 17.1514 14.9156L18.4725 13.4764L18.217 15.4114C18.1818 15.6782 18.2695 15.9467 18.4555 16.1413L19.6772 17.4194L17.9125 17.3055Z" fill="#222222"/>
</g>
</mask>
<g mask="url(#mask0_1593_32980)">
<rect x="10" y="7" width="18" height="18" fill="black"/>
</g>
<defs>
<clipPath id="clip0_1593_32980">
<rect width="18" height="18" fill="white" transform="translate(10 7)"/>
</clipPath>
</defs>
</svg>
