<svg width="22" height="22" viewBox="0 0 22 22" fill="none" xmlns="http://www.w3.org/2000/svg">
<mask id="mask0_606_308" style="mask-type:alpha" maskUnits="userSpaceOnUse" x="0" y="0" width="22" height="22">
<path d="M18.975 18.1737H7.97502C7.51956 18.1737 7.15002 17.8041 7.15002 17.3487C7.15002 16.8932 7.51956 16.5237 7.97502 16.5237H18.975C19.4305 16.5237 19.8 16.8932 19.8 17.3487C19.8 17.8041 19.4305 18.1737 18.975 18.1737Z" fill="#292929"/>
<path d="M18.975 11.5736H7.97502C7.51956 11.5736 7.15002 11.2041 7.15002 10.7486C7.15002 10.2931 7.51956 9.92358 7.97502 9.92358H18.975C19.4305 9.92358 19.8 10.2931 19.8 10.7486C19.8 11.2041 19.4305 11.5736 18.975 11.5736Z" fill="#292929"/>
<path d="M18.975 4.97373H7.97502C7.51956 4.97373 7.15002 4.6042 7.15002 4.14873C7.15002 3.69326 7.51956 3.32373 7.97502 3.32373H18.975C19.4305 3.32373 19.8 3.69326 19.8 4.14873C19.8 4.6042 19.4305 4.97373 18.975 4.97373Z" fill="#292929"/>
<path d="M3.85001 5.79829C4.76128 5.79829 5.50001 5.05956 5.50001 4.14829C5.50001 3.23702 4.76128 2.49829 3.85001 2.49829C2.93874 2.49829 2.20001 3.23702 2.20001 4.14829C2.20001 5.05956 2.93874 5.79829 3.85001 5.79829Z" fill="#292929"/>
<path d="M3.85001 12.3981C4.76128 12.3981 5.50001 11.6594 5.50001 10.7481C5.50001 9.83687 4.76128 9.09814 3.85001 9.09814C2.93874 9.09814 2.20001 9.83687 2.20001 10.7481C2.20001 11.6594 2.93874 12.3981 3.85001 12.3981Z" fill="#292929"/>
<path d="M3.85001 18.9982C4.76128 18.9982 5.50001 18.2595 5.50001 17.3482C5.50001 16.437 4.76128 15.6982 3.85001 15.6982C2.93874 15.6982 2.20001 16.437 2.20001 17.3482C2.20001 18.2595 2.93874 18.9982 3.85001 18.9982Z" fill="#292929"/>
</mask>
<g mask="url(#mask0_606_308)">
<rect width="22" height="22" fill="#222222"/>
</g>
</svg>
