<svg width="22" height="22" viewBox="0 0 22 22" fill="none" xmlns="http://www.w3.org/2000/svg">
<mask id="mask0_606_2024" style="mask-type:alpha" maskUnits="userSpaceOnUse" x="0" y="0" width="22" height="22">
<path d="M7.70002 12.65H3.85002V12.4416C3.85002 7.96215 4.8673 5.81586 7.36164 5.03168C7.79616 4.89418 8.03787 4.43119 7.90089 3.99721C7.765 3.56323 7.30524 3.3183 6.86642 3.45688C2.73067 4.75776 2.20001 8.94184 2.20001 12.4416V18.15C2.20001 19.0613 2.93874 19.8 3.85001 19.8H7.70001C8.61129 19.8 9.35001 19.0613 9.35001 18.15V14.3C9.35001 13.3888 8.6113 12.65 7.70002 12.65Z" fill="#222222"/>
<path d="M17.6 12.65H13.75V12.4416C13.75 7.96215 14.7673 5.81586 17.2616 5.03168C17.6961 4.89418 17.9378 4.43119 17.8009 3.99721C17.6644 3.56323 17.2041 3.3183 16.7664 3.45688C12.6306 4.75776 12.1 8.94184 12.1 12.4416V18.15C12.1 19.0613 12.8387 19.8 13.75 19.8H17.6C18.5112 19.8 19.25 19.0613 19.25 18.15V14.3C19.25 13.3888 18.5113 12.65 17.6 12.65Z" fill="#222222"/>
</mask>
<g mask="url(#mask0_606_2024)">
<rect width="22" height="22" fill="#222222"/>
</g>
</svg>
