<svg width="22" height="22" viewBox="0 0 22 22" fill="none" xmlns="http://www.w3.org/2000/svg">
<mask id="mask0_594_5451" style="mask-type:alpha" maskUnits="userSpaceOnUse" x="0" y="0" width="22" height="22">
<g clip-path="url(#clip0_594_5451)">
<path fill-rule="evenodd" clip-rule="evenodd" d="M20.1667 2.44434H17.7222C17.5602 2.44434 17.4047 2.50872 17.2901 2.62333C17.1755 2.73793 17.1111 2.89337 17.1111 3.05545V5.49989C17.1111 5.66197 17.1755 5.81741 17.2901 5.93201C17.4047 6.04662 17.5602 6.111 17.7222 6.111H20.1667C20.3288 6.111 20.4842 6.04662 20.5988 5.93201C20.7134 5.81741 20.7778 5.66197 20.7778 5.49989V3.05545C20.7778 2.89337 20.7134 2.73793 20.5988 2.62333C20.4842 2.50872 20.3288 2.44434 20.1667 2.44434ZM20.1667 8.55545H17.7222C17.588 8.55655 17.458 8.60241 17.3529 8.68577C17.2477 8.76913 17.1734 8.88521 17.1417 9.01561C18.4475 9.12498 19.7015 9.576 20.7778 10.3234V9.16656C20.7778 9.00448 20.7134 8.84904 20.5988 8.73444C20.4842 8.61983 20.3288 8.55545 20.1667 8.55545ZM15.5833 3.66656H11.3056C11.2245 3.66656 11.1468 3.69875 11.0895 3.75605C11.0322 3.81336 11 3.89108 11 3.97211V9.77767H7.6389C7.55786 9.77767 7.48014 9.80986 7.42283 9.86716C7.36553 9.92447 7.33334 10.0022 7.33334 10.0832V10.6943C7.33334 10.7754 7.36553 10.8531 7.42283 10.9104C7.48014 10.9677 7.55786 10.9999 7.6389 10.9999H11V11.3879C11.6147 10.7266 12.3434 10.1812 13.1511 9.77767H12.2222V4.88878H15.5833C15.6644 4.88878 15.7421 4.85659 15.7994 4.79929C15.8567 4.74198 15.8889 4.66426 15.8889 4.58322V3.97211C15.8889 3.89108 15.8567 3.81336 15.7994 3.75605C15.7421 3.69875 15.6644 3.66656 15.5833 3.66656ZM5.50001 7.33322H1.83334C1.67126 7.33322 1.51582 7.39761 1.40122 7.51222C1.28661 7.62682 1.22223 7.78226 1.22223 7.94434V13.5666C1.22223 13.7286 1.28661 13.8841 1.40122 13.9987C1.51582 14.1133 1.67126 14.1777 1.83334 14.1777H5.50001C5.66208 14.1777 5.81752 14.1133 5.93213 13.9987C6.04673 13.8841 6.11112 13.7286 6.11112 13.5666V7.94434C6.11112 7.78226 6.04673 7.62682 5.93213 7.51222C5.81752 7.39761 5.66208 7.33322 5.50001 7.33322Z" fill="#222222"/>
<path fill-rule="evenodd" clip-rule="evenodd" d="M16.5611 11.1221C15.4854 11.1221 14.4338 11.4411 13.5394 12.0387C12.645 12.6363 11.9479 13.4858 11.5362 14.4796C11.1245 15.4734 11.0168 16.567 11.2267 17.622C11.4366 18.6771 11.9546 19.6462 12.7152 20.4068C13.4759 21.1675 14.445 21.6855 15.5 21.8953C16.5551 22.1052 17.6486 21.9975 18.6425 21.5858C19.6363 21.1742 20.4857 20.4771 21.0834 19.5826C21.681 18.6882 22 17.6367 22 16.561C22 15.1185 21.4269 13.7351 20.407 12.7151C19.387 11.6951 18.0036 11.1221 16.5611 11.1221ZM19.6166 16.8665C19.6166 16.9476 19.5844 17.0253 19.5271 17.0826C19.4698 17.1399 19.3921 17.1721 19.3111 17.1721H17.1722V19.311C17.1722 19.392 17.14 19.4697 17.0827 19.527C17.0254 19.5843 16.9477 19.6165 16.8666 19.6165H16.2555C16.1745 19.6165 16.0968 19.5843 16.0395 19.527C15.9822 19.4697 15.95 19.392 15.95 19.311V17.1721H13.8111C13.73 17.1721 13.6523 17.1399 13.595 17.0826C13.5377 17.0253 13.5055 16.9476 13.5055 16.8665V16.2554C13.5055 16.1744 13.5377 16.0966 13.595 16.0393C13.6523 15.982 13.73 15.9498 13.8111 15.9498H15.95V13.811C15.95 13.7299 15.9822 13.6522 16.0395 13.5949C16.0968 13.5376 16.1745 13.5054 16.2555 13.5054H16.8666C16.9477 13.5054 17.0254 13.5376 17.0827 13.5949C17.14 13.6522 17.1722 13.7299 17.1722 13.811V15.9498H19.3111C19.3921 15.9498 19.4698 15.982 19.5271 16.0393C19.5844 16.0966 19.6166 16.1744 19.6166 16.2554V16.8665Z" fill="#222222"/>
</g>
</mask>
<g mask="url(#mask0_594_5451)">
<rect width="22" height="22" fill="#222222"/>
</g>
<defs>
<clipPath id="clip0_594_5451">
<rect width="22" height="22" fill="white"/>
</clipPath>
</defs>
</svg>
