<svg width="22" height="22" viewBox="0 0 22 22" fill="none" xmlns="http://www.w3.org/2000/svg">
<mask id="mask0_606_4255" style="mask-type:alpha" maskUnits="userSpaceOnUse" x="0" y="0" width="22" height="22">
<path fill-rule="evenodd" clip-rule="evenodd" d="M12.2222 1.22217V7.33328H18.3333L12.2222 1.22217Z" fill="#222222"/>
<path fill-rule="evenodd" clip-rule="evenodd" d="M11.6111 8.5555C11.4491 8.5555 11.2936 8.49112 11.179 8.37651C11.0644 8.26191 11 8.10647 11 7.94439V1.22217H8.55558V10.6944C8.55558 10.7754 8.52338 10.8531 8.46608 10.9105C8.40878 10.9678 8.33106 10.9999 8.25002 10.9999H7.63891C7.55787 10.9999 7.48015 10.9678 7.42285 10.9105C7.36555 10.8531 7.33335 10.7754 7.33335 10.6944V1.22217H4.2778C4.11572 1.22217 3.96028 1.28655 3.84568 1.40116C3.73107 1.51576 3.66669 1.6712 3.66669 1.83328V20.1666C3.66669 20.3287 3.73107 20.4841 3.84568 20.5987C3.96028 20.7133 4.11572 20.7777 4.2778 20.7777H7.33335V18.6388C7.33335 18.5578 7.36555 18.4801 7.42285 18.4228C7.48015 18.3655 7.55787 18.3333 7.63891 18.3333H8.25002C8.33106 18.3333 8.40878 18.3655 8.46608 18.4228C8.52338 18.4801 8.55558 18.5578 8.55558 18.6388V20.7777H17.7222C17.8843 20.7777 18.0398 20.7133 18.1544 20.5987C18.269 20.4841 18.3334 20.3287 18.3334 20.1666V8.5555H11.6111ZM11 16.4999C11 16.662 10.9356 16.8175 10.821 16.9321C10.7064 17.0467 10.551 17.1111 10.3889 17.1111H5.50002C5.33794 17.1111 5.18251 17.0467 5.0679 16.9321C4.95329 16.8175 4.88891 16.662 4.88891 16.4999V10.3888C4.88891 10.2268 4.95329 10.0713 5.0679 9.95671C5.18251 9.84211 5.33794 9.77772 5.50002 9.77772H6.11113V12.2222H9.7778V9.77772H10.3889C10.551 9.77772 10.7064 9.84211 10.821 9.95671C10.9356 10.0713 11 10.2268 11 10.3888V16.4999Z" fill="#222222"/>
<path d="M7.94447 16.0026C8.68226 16.0026 9.28036 15.4045 9.28036 14.6667C9.28036 13.9289 8.68226 13.3308 7.94447 13.3308C7.20668 13.3308 6.60858 13.9289 6.60858 14.6667C6.60858 15.4045 7.20668 16.0026 7.94447 16.0026Z" fill="#222222"/>
</mask>
<g mask="url(#mask0_606_4255)">
<rect width="22" height="22" fill="#222222"/>
</g>
</svg>
