<svg width="22" height="22" viewBox="0 0 22 22" fill="none" xmlns="http://www.w3.org/2000/svg">
<mask id="mask0_606_5315" style="mask-type:alpha" maskUnits="userSpaceOnUse" x="0" y="0" width="22" height="22">
<path d="M9.89891 20.6013C9.50359 20.6013 9.11043 20.4934 8.75808 20.2791C8.09529 19.8768 7.69998 19.1737 7.69998 18.3986V11.5392C7.69998 11.3346 7.62479 11.1391 7.48837 10.9876L2.89071 5.87968C2.29881 5.23032 2.14949 4.32153 2.50721 3.51211C2.86386 2.70268 3.63514 2.19995 4.5203 2.19995H17.4797C18.3648 2.19995 19.1361 2.70268 19.4928 3.51211C19.8505 4.32153 19.7012 5.23032 19.105 5.88344L14.5116 10.9876C14.3752 11.1391 14.3 11.3346 14.3 11.5392V17.0892C14.3 18.0173 13.7887 18.8589 12.9658 19.2859L10.9141 20.351C10.5929 20.5181 10.2448 20.6013 9.89891 20.6013ZM4.5203 3.84995C4.19589 3.84995 4.06053 4.0793 4.01649 4.17813C3.97245 4.27695 3.89511 4.53208 4.11317 4.77163L8.71512 9.8833C9.1244 10.3382 9.34998 10.9264 9.34998 11.5392V18.3986C9.34998 18.6779 9.53475 18.8203 9.61424 18.8686C9.69373 18.9175 9.90642 19.0142 10.1535 18.8869L12.2052 17.8212C12.4802 17.6789 12.65 17.3985 12.65 17.0892V11.5392C12.65 10.9264 12.8756 10.3382 13.2848 9.8833L17.8825 4.77539C18.1049 4.53208 18.0275 4.27696 17.9835 4.17813C17.9394 4.07929 17.8041 3.84995 17.4797 3.84995H4.5203Z" fill="#292929"/>
</mask>
<g mask="url(#mask0_606_5315)">
<rect width="22" height="22" fill="#222222"/>
</g>
</svg>
