<svg width="22" height="22" viewBox="0 0 22 22" fill="none" xmlns="http://www.w3.org/2000/svg">
<mask id="mask0_606_2620" style="mask-type:alpha" maskUnits="userSpaceOnUse" x="0" y="0" width="22" height="22">
<path d="M15.95 8.27323C15.95 9.1845 15.2113 9.92323 14.3 9.92323C13.3888 9.92323 12.65 9.1845 12.65 8.27323C12.65 7.36196 13.3888 6.62323 14.3 6.62323C15.2113 6.62323 15.95 7.36196 15.95 8.27323Z" fill="#292929"/>
<path d="M16.5 11.55C13.7662 11.55 11.55 13.7662 11.55 16.5C11.55 19.2338 13.7662 21.45 16.5 21.45C19.2338 21.45 21.45 19.2338 21.45 16.5C21.45 13.7662 19.2338 11.55 16.5 11.55ZM19.25 17.1875H17.1875V19.25C17.1875 19.6292 16.8792 19.9375 16.5 19.9375C16.1208 19.9375 15.8125 19.6292 15.8125 19.25V17.1875H13.75C13.3708 17.1875 13.0625 16.8792 13.0625 16.5C13.0625 16.1208 13.3708 15.8125 13.75 15.8125H15.8125V13.75C15.8125 13.3708 16.1208 13.0625 16.5 13.0625C16.8792 13.0625 17.1875 13.3708 17.1875 13.75V15.8125H19.25C19.6292 15.8125 19.9375 16.1208 19.9375 16.5C19.9375 16.8792 19.6292 17.1875 19.25 17.1875Z" fill="#292929"/>
<path d="M18.425 3.3H3.57498C2.21072 3.3 1.09998 4.41075 1.09998 5.775V16.225C1.09998 17.5893 2.21072 18.7 3.57498 18.7H9.1738C9.62927 18.7 9.9988 18.3305 9.9988 17.875C9.9988 17.4195 9.62927 17.05 9.1738 17.05H3.57498C3.12058 17.05 2.74998 16.6794 2.74998 16.225V14.9392L6.01668 11.6735C6.33895 11.3513 6.86102 11.3513 7.18328 11.6735L9.28983 13.7801C9.61209 14.1023 10.1342 14.1023 10.4564 13.7801C10.7787 13.4578 10.7787 12.9357 10.4564 12.6135L8.34989 10.5069C7.38524 9.54228 5.81473 9.54228 4.85008 10.5069L2.74999 12.6065V5.77499C2.74999 5.32059 3.12059 4.94999 3.57499 4.94999H18.425C18.8794 4.94999 19.25 5.32059 19.25 5.77499V10.0063C19.25 10.4618 19.6195 10.8313 20.075 10.8313C20.5305 10.8313 20.9 10.4618 20.9 10.0063V5.77499C20.9 4.41073 19.7892 3.3 18.425 3.3Z" fill="#292929"/>
</mask>
<g mask="url(#mask0_606_2620)">
<rect width="22" height="22" fill="#222222"/>
</g>
</svg>
