<svg width="48" height="48" viewBox="0 0 48 48" fill="none" xmlns="http://www.w3.org/2000/svg">
<mask id="mask0_564_5729" style="mask-type:alpha" maskUnits="userSpaceOnUse" x="13" y="13" width="22" height="22">
<g clip-path="url(#clip0_564_5729)">
<path d="M21.7112 28.5005H17.2315C17.0354 28.4967 16.8488 28.4159 16.7119 28.2756C16.575 28.1352 16.4989 27.9466 16.5 27.7505V15.2466C16.499 15.0527 16.5738 14.8661 16.7084 14.7266C16.8431 14.5872 17.0269 14.5058 17.2207 14.5H23.001V18.2632C23.001 18.4621 23.0801 18.6528 23.2207 18.7935C23.3614 18.9341 23.5521 19.0131 23.751 19.0132H27.5078V21.531C28.0222 21.5787 28.5273 21.6992 29.0078 21.8888V17.5527C29.0097 17.2906 28.9596 17.0307 28.8603 16.788C28.7611 16.5454 28.6147 16.3249 28.4297 16.1392L25.9082 13.5835C25.5369 13.2115 25.0334 13.0017 24.5078 13H17.21C16.6201 13.0101 16.0578 13.2517 15.6444 13.6726C15.231 14.0935 14.9995 14.66 15 15.25V27.7471C14.9994 28.3392 15.2322 28.9078 15.6478 29.3296C16.0635 29.7514 16.6286 29.9924 17.2207 30.0005H22.3908C22.0898 29.5376 21.8607 29.0319 21.7112 28.5005ZM24.501 14.5H24.5059C24.6311 14.5039 24.7505 14.5534 24.8418 14.6392L27.3633 17.1948C27.4459 17.281 27.4946 17.394 27.5006 17.5132H24.501V14.5Z" fill="#222222"/>
<path d="M30.5 26.25H27.75V23.5C27.75 23.3674 27.6973 23.2402 27.6036 23.1464C27.5098 23.0527 27.3826 23 27.25 23H26.75C26.6174 23 26.4902 23.0527 26.3964 23.1464C26.3027 23.2402 26.25 23.3674 26.25 23.5V26.25H23.5C23.3674 26.25 23.2402 26.3027 23.1464 26.3964C23.0527 26.4902 23 26.6174 23 26.75V27.25C23 27.3826 23.0527 27.5098 23.1464 27.6036C23.2402 27.6973 23.3674 27.75 23.5 27.75H26.25V30.5C26.25 30.6326 26.3027 30.7598 26.3964 30.8536C26.4902 30.9473 26.6174 31 26.75 31H27.25C27.3826 31 27.5098 30.9473 27.6036 30.8536C27.6973 30.7598 27.75 30.6326 27.75 30.5V27.75H30.5C30.6326 27.75 30.7598 27.6973 30.8536 27.6036C30.9473 27.5098 31 27.3826 31 27.25V26.75C31 26.6174 30.9473 26.4902 30.8536 26.3964C30.7598 26.3027 30.6326 26.25 30.5 26.25Z" fill="#222222"/>
<path d="M24.9936 21.8884V21.7554C24.9936 21.6228 24.941 21.4956 24.8472 21.4018C24.7534 21.308 24.6263 21.2554 24.4936 21.2554H19.4917C19.3591 21.2554 19.2319 21.308 19.1381 21.4018C19.0444 21.4956 18.9917 21.6228 18.9917 21.7554V22.2554C18.9917 22.388 19.0444 22.5152 19.1381 22.6089C19.2319 22.7027 19.3591 22.7554 19.4917 22.7554H23.5095C23.9556 22.3903 24.4565 22.0977 24.9936 21.8884Z" fill="#222222"/>
<path d="M22.2418 24.2554H19.4917C19.3591 24.2554 19.2319 24.308 19.1381 24.4018C19.0444 24.4956 18.9917 24.6228 18.9917 24.7554V25.2554C18.9917 25.388 19.0444 25.5152 19.1381 25.6089C19.2319 25.7027 19.3591 25.7554 19.4917 25.7554H21.6481C21.7706 25.2287 21.9707 24.7232 22.2418 24.2554Z" fill="#222222"/>
</g>
</mask>
<g mask="url(#mask0_564_5729)">
<rect x="13" y="13" width="22" height="22" fill="#222222"/>
</g>
<defs>
<clipPath id="clip0_564_5729">
<rect width="18" height="18" fill="white" transform="translate(13 13)"/>
</clipPath>
</defs>
</svg>
