<svg width="22" height="22" viewBox="0 0 22 22" fill="none" xmlns="http://www.w3.org/2000/svg">
<mask id="mask0_606_1394" style="mask-type:alpha" maskUnits="userSpaceOnUse" x="0" y="0" width="22" height="22">
<g clip-path="url(#clip0_606_1394)">
<path d="M9.52989 18.9446H3.97223C3.73291 18.9328 3.50652 18.8325 3.3371 18.663C3.16767 18.4936 3.06732 18.2672 3.05556 18.0279V2.75012C3.06732 2.51081 3.16767 2.28442 3.3371 2.11499C3.50652 1.94556 3.73291 1.84521 3.97223 1.83346H11.1224V6.41679C11.1224 6.65988 11.219 6.893 11.3909 7.0649C11.5628 7.23679 11.7959 7.33339 12.039 7.33346H16.6224V9.00947C17.2583 9.11167 17.8759 9.30621 18.4557 9.58693V5.56099C18.4554 5.23656 18.3892 4.91557 18.2612 4.61746C18.1331 4.31936 17.9459 4.05035 17.7109 3.82673L14.641 0.633907C14.1584 0.212202 13.5356 -0.0138543 12.8948 0.000123271H3.97223C3.24584 0.00961981 2.55187 0.3024 2.03819 0.816081C1.52451 1.32976 1.23173 2.02373 1.22223 2.75012V18.0279C1.23173 18.7543 1.52451 19.4483 2.03819 19.9619C2.55187 20.4756 3.24584 20.7684 3.97223 20.7779H10.8194C10.2918 20.2417 9.85615 19.6223 9.52989 18.9446ZM12.9557 1.84122C13.0847 1.84955 13.212 1.87546 13.334 1.91822L16.4021 5.10983C16.5208 5.20805 16.598 5.34744 16.6183 5.50012H12.9557V1.84122Z" fill="#222222"/>
<path d="M21.0863 17.3558H19.4947V11.8558C19.4947 11.6937 19.4303 11.5383 19.3157 11.4237C19.2011 11.3091 19.0456 11.2447 18.8836 11.2447H13.2612V9.83865C13.2612 9.67657 13.1968 9.52114 13.0822 9.40653C12.9676 9.29192 12.8122 9.22754 12.6501 9.22754H12.039C11.8769 9.22754 11.7215 9.29192 11.6069 9.40653C11.4923 9.52114 11.4279 9.67657 11.4279 9.83865V11.2447H9.90011C9.73804 11.2447 9.5826 11.3091 9.46799 11.4237C9.35339 11.5383 9.289 11.6937 9.289 11.8558V12.4669C9.289 12.629 9.35339 12.7844 9.46799 12.899C9.5826 13.0136 9.73804 13.078 9.90011 13.078H11.4279V18.578C11.4279 18.7401 11.4923 18.8955 11.6069 19.0101C11.7215 19.1248 11.8769 19.1891 12.039 19.1891H17.6613V20.7169C17.6613 20.879 17.7257 21.0344 17.8403 21.149C17.9549 21.2636 18.1104 21.328 18.2725 21.328H18.8836C19.0456 21.328 19.2011 21.2636 19.3157 21.149C19.4303 21.0344 19.4947 20.879 19.4947 20.7169V19.1891H21.0863C21.2484 19.1891 21.4038 19.1248 21.5184 19.0101C21.633 18.8955 21.6974 18.7401 21.6974 18.578V17.9669C21.6974 17.8048 21.633 17.6494 21.5184 17.5348C21.4038 17.4202 21.2484 17.3558 21.0863 17.3558ZM13.2612 17.3558V13.078H17.6613V17.3558H13.2612Z" fill="#222222"/>
</g>
</mask>
<g mask="url(#mask0_606_1394)">
<rect width="22" height="22" fill="#222222"/>
</g>
<defs>
<clipPath id="clip0_606_1394">
<rect width="22" height="22" fill="white"/>
</clipPath>
</defs>
</svg>
