<svg width="22" height="22" viewBox="0 0 22 22" fill="none" xmlns="http://www.w3.org/2000/svg">
<mask id="mask0_594_2818" style="mask-type:alpha" maskUnits="userSpaceOnUse" x="0" y="0" width="22" height="22">
<path d="M2.28057 13.9348C3.50089 12.4792 5.84765 12.3191 7.79857 13.4487L17.2219 1.57481C17.5055 1.21817 18.0254 1.16016 18.381 1.44053C18.7387 1.72412 18.7978 2.24297 18.5152 2.59961L17.8984 3.37681L20.3307 5.41836C20.5004 5.56016 20.6057 5.76533 20.6229 5.98662C20.64 6.20684 20.567 6.42597 20.422 6.59248L18.1038 9.24902C17.9405 9.43594 17.7117 9.53155 17.4818 9.53155C17.2938 9.53155 17.1059 9.46817 16.9512 9.33819L14.6801 7.43199L13.9959 8.29432L16.2454 10.1815C16.5945 10.4736 16.6396 10.9946 16.3464 11.3438C16.1831 11.5382 15.95 11.6381 15.7147 11.6381C15.5268 11.6381 15.3388 11.5747 15.1841 11.4447L12.9698 9.58715L9.09178 14.4735C9.86402 15.2837 10.3638 16.2637 10.4704 17.2692C10.5714 18.2295 10.3082 19.1383 9.72813 19.8301C9.03956 20.6497 7.99112 21.0611 6.85782 21.0611C5.74492 21.0611 4.55039 20.6648 3.53525 19.8709C2.39873 18.9825 1.67148 17.7504 1.53936 16.4925C1.43946 15.5332 1.70264 14.6244 2.28057 13.9348ZM17.3927 7.55391L18.6259 6.14131L16.8723 4.66964L15.7061 6.13904L17.3927 7.55391ZM3.18077 16.3206C3.26455 17.1241 3.77804 17.9652 4.55147 18.5711C5.88779 19.6131 7.67959 19.7055 8.46377 18.7698C8.83437 18.3272 8.8666 17.8041 8.829 17.4421C8.74414 16.6386 8.23174 15.7985 7.45723 15.1927C6.74072 14.6319 5.89316 14.3462 5.14013 14.3462C4.49023 14.3462 3.90908 14.56 3.54491 14.9939C3.17538 15.4355 3.14317 15.9597 3.18077 16.3206Z" fill="#292929"/>
</mask>
<g mask="url(#mask0_594_2818)">
<rect width="22" height="22" fill="#222222"/>
</g>
</svg>
