<svg width="22" height="22" viewBox="0 0 22 22" fill="none" xmlns="http://www.w3.org/2000/svg">
<mask id="mask0_606_4997" style="mask-type:alpha" maskUnits="userSpaceOnUse" x="0" y="0" width="22" height="22">
<g clip-path="url(#clip0_606_4997)">
<path d="M9.30925 13.9172L8.50358 16.2137C8.50216 16.2266 8.49818 16.2391 8.49186 16.2504C8.48554 16.2618 8.47701 16.2718 8.46678 16.2798C8.45655 16.2878 8.44482 16.2937 8.43228 16.2971C8.41975 16.3005 8.40666 16.3013 8.39378 16.2996H7.41623C7.34223 16.2996 7.31836 16.2626 7.34223 16.2017L9.94423 8.87319C10.0081 8.69257 10.0412 8.50253 10.0421 8.31096C10.0416 8.30285 10.0429 8.29472 10.0458 8.28713C10.0487 8.27953 10.0531 8.27263 10.0589 8.26688C10.0646 8.26113 10.0715 8.25666 10.0791 8.25377C10.0867 8.25088 10.0949 8.24963 10.103 8.2501H11.4959C11.5448 8.2501 11.5687 8.26204 11.5818 8.31096L14.4273 16.2017C14.4404 16.2626 14.4273 16.2996 14.3664 16.2996H13.2672C13.2437 16.3 13.2206 16.2933 13.201 16.2803C13.1814 16.2673 13.1662 16.2486 13.1574 16.2268L12.3386 13.9172L9.30925 13.9172ZM12.0091 12.8299C11.7525 12.0362 11.0567 10.0691 10.8239 9.22648H10.812C10.6043 10.0214 10.054 11.5719 9.62673 12.8299H12.0091Z" fill="#222222"/>
<path d="M18.8585 3.83149L15.7767 0.706696C15.316 0.256597 14.6996 0.00138748 14.0556 -0.00585938H5.14732C4.4259 0.00565312 3.73798 0.300564 3.23223 0.81514C2.72647 1.32972 2.4435 2.02263 2.44446 2.74414V18.0171C2.44346 18.7412 2.7279 19.4364 3.2361 19.9521C3.7443 20.4678 4.4353 20.7623 5.15925 20.7719H16.8635C17.5846 20.7599 18.2721 20.4647 18.7775 19.9502C19.283 19.4358 19.5658 18.7432 19.5651 18.0219V5.55859C19.5665 4.91224 19.3126 4.2915 18.8585 3.83149ZM14.4727 1.99571L17.5563 5.12169C17.6566 5.22682 17.7158 5.36449 17.7231 5.5096H14.0568V1.82747H14.064C14.2162 1.83158 14.3617 1.89142 14.4727 1.99571ZM16.8503 18.9385H5.17237C4.93269 18.9341 4.70441 18.8354 4.53697 18.6638C4.36954 18.4922 4.27642 18.2616 4.27779 18.0219V2.73936C4.27621 2.50226 4.36762 2.27399 4.5324 2.10351C4.69719 1.93303 4.92223 1.83394 5.15925 1.82747H12.2235V6.42632C12.2235 6.66941 12.3201 6.90254 12.492 7.07443C12.6639 7.24633 12.897 7.34293 13.1401 7.34298H17.7318V18.0267C17.7329 18.2636 17.6413 18.4916 17.4766 18.662C17.312 18.8324 17.0872 18.9316 16.8503 18.9385Z" fill="#222222"/>
</g>
</mask>
<g mask="url(#mask0_606_4997)">
<rect width="22" height="22" fill="#222222"/>
</g>
<defs>
<clipPath id="clip0_606_4997">
<rect width="22" height="22" fill="white"/>
</clipPath>
</defs>
</svg>
