<svg width="22" height="22" viewBox="0 0 22 22" fill="none" xmlns="http://www.w3.org/2000/svg">
<mask id="mask0_594_1433" style="mask-type:alpha" maskUnits="userSpaceOnUse" x="0" y="0" width="22" height="22">
<path d="M20.3833 10.4167L18.0576 8.09105C17.7353 7.76878 17.2133 7.76878 16.891 8.09105C16.5687 8.41331 16.5687 8.93539 16.891 9.25765L17.7912 10.1578H13.2945C12.0452 10.1578 10.8722 9.6723 9.98915 8.78929L4.28935 3.08948C3.96708 2.76721 3.44501 2.76721 3.12274 3.08948C2.80048 3.41175 2.80048 3.93382 3.12274 4.25608L8.82255 9.95589C9.24593 10.3791 9.73161 10.7087 10.2408 10.9917C9.73161 11.275 9.24566 11.6045 8.82255 12.0281L3.12274 17.7268C2.80048 18.0491 2.80048 18.5711 3.12274 18.8934C3.28387 19.0545 3.49442 19.1351 3.70604 19.1351C3.91766 19.1351 4.12821 19.0545 4.28934 18.8934L9.98914 13.1947C10.8721 12.3117 12.0452 11.825 13.2945 11.825H17.8084L16.891 12.7424C16.5687 13.0647 16.5687 13.5867 16.891 13.909C17.0521 14.0701 17.2627 14.1507 17.4743 14.1507C17.6859 14.1507 17.8965 14.0702 18.0576 13.909L20.3833 11.5833C20.7055 11.2611 20.7056 10.739 20.3833 10.4167Z" fill="#292929"/>
</mask>
<g mask="url(#mask0_594_1433)">
<rect width="22" height="22" fill="#222222"/>
</g>
</svg>
