<svg width="22" height="22" viewBox="0 0 22 22" fill="none" xmlns="http://www.w3.org/2000/svg">
<mask id="mask0_594_4215" style="mask-type:alpha" maskUnits="userSpaceOnUse" x="0" y="0" width="22" height="22">
<path d="M11.8285 4.5433L11.4126 4.99138C11.3024 5.11016 11.2439 5.26786 11.2499 5.42981C11.2559 5.59175 11.326 5.74466 11.4448 5.85493L15.9991 10.0834H1.83334C1.67126 10.0834 1.51582 10.1478 1.40122 10.2624C1.28661 10.377 1.22223 10.5324 1.22223 10.6945V11.3056C1.22223 11.4677 1.28661 11.6231 1.40122 11.7378C1.51582 11.8524 1.67126 11.9167 1.83334 11.9167H15.9991L11.4448 16.1452C11.326 16.2555 11.2559 16.4084 11.2499 16.5704C11.2439 16.7323 11.3024 16.89 11.4126 17.0088L11.8285 17.4569C11.8831 17.5157 11.9487 17.5632 12.0217 17.5967C12.0947 17.6301 12.1735 17.6489 12.2537 17.6518C12.3339 17.6548 12.4139 17.642 12.4892 17.614C12.5644 17.5861 12.6334 17.5436 12.6922 17.489L19.198 11.4479C19.2596 11.3907 19.3088 11.3214 19.3424 11.2444C19.376 11.1673 19.3933 11.0841 19.3933 11.0001C19.3933 10.916 19.376 10.8329 19.3424 10.7558C19.3088 10.6788 19.2596 10.6095 19.198 10.5523L12.6922 4.51119C12.6334 4.45657 12.5644 4.41408 12.4892 4.38613C12.4139 4.35819 12.3339 4.34534 12.2537 4.34832C12.1735 4.3513 12.0947 4.37006 12.0217 4.40351C11.9487 4.43697 11.8831 4.48447 11.8285 4.5433Z" fill="#222222"/>
</mask>
<g mask="url(#mask0_594_4215)">
<rect width="22" height="22" fill="#222222"/>
</g>
</svg>
