<svg width="22" height="22" viewBox="0 0 22 22" fill="none" xmlns="http://www.w3.org/2000/svg">
<mask id="mask0_594_906" style="mask-type:alpha" maskUnits="userSpaceOnUse" x="0" y="0" width="22" height="22">
<path d="M20.1667 10.0834H6.00091L10.5552 5.85493C10.674 5.74467 10.7441 5.59175 10.7501 5.42981C10.7561 5.26787 10.6976 5.11016 10.5874 4.99138L10.1715 4.5433C10.1169 4.48447 10.0513 4.43697 9.97829 4.40351C9.90533 4.37006 9.82649 4.3513 9.74628 4.34832C9.66607 4.34534 9.58606 4.35819 9.51081 4.38614C9.43557 4.41408 9.36656 4.45658 9.30775 4.5112L2.80197 10.5523C2.74037 10.6095 2.69123 10.6788 2.65763 10.7558C2.62403 10.8329 2.60669 10.916 2.60669 11.0001C2.60669 11.0842 2.62403 11.1673 2.65763 11.2444C2.69123 11.3214 2.74037 11.3907 2.80197 11.4479L9.30775 17.489C9.36656 17.5436 9.43557 17.5861 9.51081 17.614C9.58606 17.642 9.66607 17.6548 9.74628 17.6519C9.82649 17.6489 9.90533 17.6301 9.97829 17.5967C10.0513 17.5632 10.1169 17.5157 10.1715 17.4569L10.5874 17.0088C10.6976 16.89 10.7561 16.7323 10.7501 16.5704C10.7441 16.4084 10.674 16.2555 10.5552 16.1452L6.00091 11.9168H20.1667C20.3287 11.9168 20.4842 11.8524 20.5988 11.7378C20.7134 11.6232 20.7778 11.4677 20.7778 11.3056V10.6945C20.7778 10.5325 20.7134 10.377 20.5988 10.2624C20.4842 10.1478 20.3287 10.0834 20.1667 10.0834Z" fill="#222222"/>
</mask>
<g mask="url(#mask0_594_906)">
<rect width="22" height="22" fill="#222222"/>
</g>
</svg>
