<svg width="22" height="22" viewBox="0 0 22 22" fill="none" xmlns="http://www.w3.org/2000/svg">
<mask id="mask0_594_197" style="mask-type:alpha" maskUnits="userSpaceOnUse" x="0" y="0" width="22" height="22">
<path d="M17.4891 9.30737L11.4478 2.80133C11.3906 2.73973 11.3213 2.69059 11.2443 2.65699C11.1672 2.62339 11.084 2.60605 11 2.60605C10.9159 2.60605 10.8328 2.62339 10.7557 2.65699C10.6787 2.69059 10.6094 2.73973 10.5522 2.80133L4.51089 9.30737C4.40062 9.42612 4.34203 9.58381 4.34801 9.74576C4.35399 9.90771 4.42406 10.0606 4.54279 10.1709L4.99126 10.5875C5.05007 10.6422 5.11906 10.6847 5.1943 10.7126C5.26954 10.7406 5.34955 10.7535 5.42976 10.7505C5.50997 10.7475 5.58881 10.7288 5.66178 10.6954C5.73475 10.6619 5.80042 10.6144 5.85503 10.5556L10.0833 6.00153V20.1667C10.0833 20.3287 10.1477 20.4842 10.2623 20.5988C10.3769 20.7134 10.5324 20.7778 10.6944 20.7778H11.3055C11.4676 20.7778 11.6231 20.7134 11.7377 20.5988C11.8523 20.4842 11.9167 20.3287 11.9167 20.1667V6.00153L16.1449 10.5556C16.1996 10.6144 16.2652 10.6619 16.3382 10.6954C16.4112 10.7288 16.49 10.7475 16.5702 10.7505C16.6504 10.7535 16.7304 10.7406 16.8057 10.7126C16.8809 10.6847 16.9499 10.6422 17.0087 10.5875L17.4572 10.1709C17.5759 10.0606 17.646 9.90771 17.652 9.74576C17.6579 9.58381 17.5994 9.42612 17.4891 9.30737Z" fill="#222222"/>
</mask>
<g mask="url(#mask0_594_197)">
<rect width="22" height="22" fill="#222222"/>
</g>
</svg>
