<svg width="22" height="22" viewBox="0 0 22 22" fill="none" xmlns="http://www.w3.org/2000/svg">
<mask id="mask0_594_2503" style="mask-type:alpha" maskUnits="userSpaceOnUse" x="0" y="0" width="22" height="22">
<path d="M16.1449 12.7474L11.9166 17.3015V3.13638C11.9166 2.9743 11.8523 2.81886 11.7377 2.70426C11.6231 2.58965 11.4676 2.52527 11.3055 2.52527H10.6944C10.5323 2.52527 10.3769 2.58965 10.2623 2.70426C10.1477 2.81886 10.0833 2.9743 10.0833 3.13638V17.3015L5.85502 12.7474C5.80041 12.6886 5.73474 12.6411 5.66178 12.6077C5.58881 12.5742 5.50997 12.5555 5.42975 12.5525C5.34954 12.5496 5.26953 12.5624 5.19429 12.5904C5.11906 12.6184 5.05006 12.6609 4.99125 12.7155L4.54278 13.1321C4.42405 13.2424 4.35399 13.3953 4.34801 13.5573C4.34203 13.7192 4.40062 13.8769 4.51088 13.9957L10.5522 20.5017C10.6094 20.5633 10.6787 20.6124 10.7557 20.646C10.8328 20.6796 10.9159 20.6969 11 20.6969C11.084 20.6969 11.1672 20.6796 11.2443 20.646C11.3213 20.6124 11.3906 20.5633 11.4478 20.5017L17.4891 13.9957C17.5993 13.8769 17.6579 13.7192 17.6519 13.5573C17.646 13.3953 17.5759 13.2424 17.4572 13.1321L17.0087 12.7155C16.9499 12.6609 16.8809 12.6183 16.8057 12.5904C16.7304 12.5624 16.6504 12.5496 16.5702 12.5525C16.49 12.5555 16.4112 12.5742 16.3382 12.6077C16.2652 12.6411 16.1995 12.6886 16.1449 12.7474Z" fill="#222222"/>
</mask>
<g mask="url(#mask0_594_2503)">
<rect width="22" height="22" fill="#222222"/>
</g>
</svg>
