<svg width="22" height="22" viewBox="0 0 22 22" fill="none" xmlns="http://www.w3.org/2000/svg">
<mask id="mask0_606_3279" style="mask-type:alpha" maskUnits="userSpaceOnUse" x="0" y="0" width="22" height="22">
<path d="M18.4153 2.19995H7.83749C4.95643 2.19995 2.61249 4.5439 2.61249 7.42495C2.61249 10.306 4.95643 12.65 7.83749 12.65H8.24999V18.8665C8.24999 19.3219 8.61952 19.6915 9.07499 19.6915C9.53045 19.6915 9.89999 19.3219 9.89999 18.8665V3.84995H13.2V18.8665C13.2 19.3219 13.5695 19.6915 14.025 19.6915C14.4805 19.6915 14.85 19.3219 14.85 18.8665V3.84995H18.4153C18.8708 3.84995 19.2403 3.48042 19.2403 3.02495C19.2403 2.56949 18.8708 2.19995 18.4153 2.19995ZM8.24999 11H7.83749C5.8663 11 4.26249 9.39614 4.26249 7.42495C4.26249 5.45376 5.8663 3.84995 7.83749 3.84995H8.24999V11Z" fill="#292929"/>
</mask>
<g mask="url(#mask0_606_3279)">
<rect width="22" height="22" fill="#222222"/>
</g>
</svg>
