<svg width="22" height="22" viewBox="0 0 22 22" fill="none" xmlns="http://www.w3.org/2000/svg">
<mask id="mask0_594_1665" style="mask-type:alpha" maskUnits="userSpaceOnUse" x="0" y="0" width="22" height="22">
<path d="M21.355 4.36551C20.9403 4.1786 20.4505 4.36551 20.2657 4.78231L19.4944 6.51073C19.2178 5.97389 18.8918 5.4623 18.5147 4.98105C17.7467 3.99814 16.8089 3.18496 15.7271 2.56191C14.61 1.91953 13.3896 1.51454 12.1016 1.3577C10.8115 1.1955 9.52889 1.29862 8.29032 1.65419C7.09364 1.99579 5.9872 2.55975 5.00321 3.32997C4.01815 4.10019 3.20497 5.03797 2.58515 6.11649C2.16406 6.84911 1.84071 7.63866 1.62479 8.46044C1.50986 8.90194 1.77304 9.35204 2.21347 9.46806C2.28437 9.48632 2.35419 9.49491 2.42402 9.49491C2.78925 9.49491 3.12441 9.24998 3.22109 8.87938C3.39941 8.19833 3.66689 7.5452 4.01602 6.93827C4.5295 6.04452 5.20303 5.26786 6.01944 4.62977C6.83585 3.99169 7.75216 3.52333 8.74365 3.23974C9.7706 2.9454 10.8319 2.86484 11.9008 2.99481C12.9696 3.12587 13.9805 3.46102 14.9054 3.99276C15.8002 4.50839 16.5779 5.183 17.215 5.99726C17.4873 6.34477 17.7217 6.71457 17.9309 7.09726L16.2192 6.33349C15.8034 6.1455 15.3157 6.33349 15.1299 6.75029C14.9441 7.16601 15.131 7.65478 15.5467 7.83954L19.0981 9.42401C19.2055 9.47236 19.3194 9.49599 19.4343 9.49599C19.5342 9.49599 19.6341 9.47773 19.7297 9.44121C19.9338 9.36279 20.0982 9.20703 20.1873 9.00722L21.7718 5.45478C21.9576 5.03798 21.7707 4.55027 21.355 4.36551Z" fill="#292929"/>
<path d="M19.7866 12.5328C19.3547 12.4221 18.896 12.68 18.78 13.1225C18.6028 13.8014 18.3353 14.4546 17.9851 15.0626C17.4706 15.9574 16.7959 16.7341 15.9806 17.3721C15.1663 18.0102 14.25 18.4775 13.2575 18.7611C12.2316 19.0555 11.1681 19.136 10.1003 19.0071C9.03147 18.8761 8.01956 18.5409 7.09466 18.0092C6.20091 17.4946 5.42425 16.82 4.78616 16.0047C4.51385 15.6569 4.27967 15.2876 4.07074 14.9055L5.78196 15.6684C6.19768 15.8564 6.68646 15.6684 6.87121 15.2516C7.05706 14.8348 6.87014 14.3471 6.45441 14.1624L2.90198 12.5779C2.48625 12.391 1.99856 12.5779 1.81272 12.9947L0.228271 16.5461C0.0424259 16.9618 0.229349 17.4506 0.645072 17.6353C0.754643 17.6847 0.868504 17.7073 0.981298 17.7073C1.29604 17.7073 1.5979 17.5258 1.73433 17.2185L2.50561 15.4898C2.78195 16.0267 3.10852 16.5388 3.48637 17.0209C4.25551 18.0049 5.19223 18.818 6.27289 19.44C7.39007 20.0824 8.61147 20.4874 9.90053 20.6442C10.2958 20.6926 10.6901 20.7173 11.0822 20.7173C11.9706 20.7173 12.8514 20.5937 13.7108 20.3477C14.9096 20.0051 16.015 19.4411 16.9968 18.672C17.9808 17.9028 18.7951 16.965 19.416 15.8854C19.8381 15.1496 20.1615 14.3611 20.3763 13.5393C20.4913 13.0989 20.2281 12.6477 19.7866 12.5328Z" fill="#292929"/>
</mask>
<g mask="url(#mask0_594_1665)">
<rect width="22" height="22" fill="#222222"/>
</g>
</svg>
