<svg width="22" height="22" viewBox="0 0 22 22" fill="none" xmlns="http://www.w3.org/2000/svg">
<mask id="mask0_594_4465" style="mask-type:alpha" maskUnits="userSpaceOnUse" x="0" y="0" width="22" height="22">
<g clip-path="url(#clip0_594_4465)">
<path d="M9.44298 20.1392L2.7267 20.1606C2.48707 20.1565 2.25878 20.0578 2.09156 19.8861C1.92434 19.7144 1.83173 19.4836 1.83391 19.244V6.40467C1.83294 6.16797 1.9245 5.94026 2.08906 5.77012C2.25363 5.59999 2.47816 5.50089 2.71476 5.49398H3.06676L3.06004 3.66064H2.70039C1.97966 3.67347 1.29281 3.96888 0.787808 4.48326C0.282804 4.99764 6.41277e-05 5.6898 0.000498663 6.41064V19.238C-0.0014907 19.9623 0.282508 20.6582 0.790757 21.1742C1.29901 21.6903 1.99042 21.9849 2.71469 21.994H10.7696C10.2406 21.4426 9.79383 20.8179 9.44298 20.1392Z" fill="#222222"/>
<path d="M16.5 19.491C15.7691 19.4895 15.065 19.2154 14.5254 18.7224L15.0456 18.7785L15.2414 16.9547L11.5097 16.5537L11.3867 20.3051L13.2188 20.3648L13.2302 20.0187C14.1138 20.8548 15.2835 21.3219 16.5 21.3244C17.6272 21.3222 18.7181 20.9254 19.5833 20.2028C20.4485 19.4803 21.0334 18.4776 21.2365 17.3689H19.3473C19.1625 17.9809 18.7861 18.5174 18.2736 18.8994C17.761 19.2815 17.1393 19.4889 16.5 19.491Z" fill="#222222"/>
<path d="M19.7274 12.5612L19.7153 12.9267C18.837 12.1234 17.6903 11.6772 16.5 11.6755C15.3728 11.6777 14.2819 12.0745 13.4167 12.7971C12.5515 13.5196 11.9665 14.5223 11.7634 15.6311H13.6528C13.8375 15.019 14.2139 14.4825 14.7265 14.1005C15.239 13.7184 15.8607 13.5111 16.5 13.5089C17.1916 13.51 17.8606 13.7553 18.389 14.2014L17.9007 14.1486L17.7049 15.9724L21.4348 16.3735L21.5595 12.6232L19.7274 12.5612Z" fill="#222222"/>
<path d="M8.55557 16.5001L8.55586 16.4941H7.61568C7.37605 16.49 7.14776 16.3913 6.98054 16.2196C6.81332 16.0479 6.72071 15.8171 6.72288 15.5775V2.73816C6.72191 2.50146 6.81348 2.27376 6.97804 2.10362C7.1426 1.93348 7.36714 1.83439 7.60374 1.82747H12.2235V5.19455C12.2235 5.43765 12.3201 5.67077 12.492 5.84266C12.6639 6.01456 12.897 6.11115 13.1401 6.11122H17.7312V8.6607C18.3606 8.75567 18.9762 8.9266 19.5645 9.16975V5.56217C19.5662 4.91472 19.3123 4.29279 18.8579 3.8315L15.7785 0.710277C15.5539 0.483668 15.2866 0.30373 14.9921 0.180825C14.6977 0.0579195 14.3818 -0.00552613 14.0627 -0.00585938H7.58936C6.86864 0.00696114 6.18179 0.302381 5.67678 0.816758C5.17178 1.33113 4.88904 2.0233 4.88948 2.74414V15.5715C4.88749 16.2958 5.17149 16.9917 5.67973 17.5077C6.18798 18.0238 6.87939 18.3184 7.60366 18.3275H8.77502C8.63132 17.7289 8.55767 17.1157 8.55557 16.5001ZM14.0568 1.82747H14.0628C14.2166 1.82744 14.3643 1.88838 14.4733 1.99696L16.7237 4.27788H14.0568V1.82747Z" fill="#222222"/>
</g>
</mask>
<g mask="url(#mask0_594_4465)">
<rect width="22" height="22" fill="#222222"/>
</g>
<defs>
<clipPath id="clip0_594_4465">
<rect width="22" height="22" fill="white"/>
</clipPath>
</defs>
</svg>
