<svg width="18" height="18" viewBox="0 0 18 18" fill="none" xmlns="http://www.w3.org/2000/svg">
<path d="M16 12H2V13H16V12Z" fill="#222222"/>
<path d="M16 16H2V17H16V16Z" fill="#222222"/>
<path d="M16 14H2V15H16V14Z" fill="#222222"/>
<path fill-rule="evenodd" clip-rule="evenodd" d="M5.73999 6.00073H4.00549C3.95874 4.82104 4.67187 3.74072 5.78308 3.32934C5.84399 3.30663 5.88489 3.24902 5.88599 3.18395V1.71801C5.88526 1.62695 5.81104 1.55383 5.71997 1.55456C5.70435 1.55468 5.68872 1.55712 5.67371 1.56152C3.65809 2.21411 2.05835 3.76269 2.03003 6.00073H2V9.76C2 9.89818 2.11194 10.01 2.25 10.01H5.73975C5.87793 10.01 5.98975 9.89818 5.98975 9.76V6.25073C5.98975 6.11255 5.87793 6.00073 5.73999 6.00073Z" fill="#222222"/>
<path fill-rule="evenodd" clip-rule="evenodd" d="M11.74 6.00073H10.0055C9.95874 4.82104 10.6719 3.74072 11.7831 3.32934C11.844 3.30663 11.8849 3.24902 11.886 3.18395V1.71801C11.8853 1.62695 11.811 1.55383 11.72 1.55456C11.7043 1.55468 11.6887 1.55712 11.6737 1.56152C9.65809 2.21411 8.05835 3.76269 8.03003 6.00073H8V9.76C8 9.89818 8.11194 10.01 8.25 10.01H11.7397C11.8779 10.01 11.9897 9.89818 11.9897 9.76V6.25073C11.9897 6.11255 11.8779 6.00073 11.74 6.00073Z" fill="#222222"/>
</svg>
