<svg width="18" height="18" viewBox="0 0 18 18" fill="none" xmlns="http://www.w3.org/2000/svg">
<path fill-rule="evenodd" clip-rule="evenodd" d="M12.293 6.29299L9 9.58592L5.707 6.29299C5.51891 6.10828 5.26549 6.00532 5.00188 6.00651C4.73826 6.00771 4.48578 6.11296 4.29938 6.29936C4.11297 6.48577 4.00772 6.73825 4.00653 7.00186C4.00533 7.26548 4.10829 7.5189 4.293 7.70699L8.293 11.707C8.48042 11.8945 8.73465 11.9999 8.99977 12C9.26489 12 9.51918 11.8948 9.70669 11.7074L13.7071 7.70699C13.8926 7.51907 13.9963 7.26537 13.9955 7.00127C13.9946 6.73717 13.8893 6.48413 13.7026 6.29739C13.5158 6.11065 13.2628 6.00538 12.9987 6.00455C12.7346 6.00373 12.4809 6.10742 12.293 6.29299Z" fill="#222222"/>
</svg>
