<svg width="18" height="18" viewBox="0 0 18 18" fill="none" xmlns="http://www.w3.org/2000/svg">
<path fill-rule="evenodd" clip-rule="evenodd" d="M17.7465 9.5305L13.65 13.6905C13.6039 13.7373 13.5491 13.7745 13.4886 13.8001C13.4282 13.8257 13.3632 13.8391 13.2976 13.8396C13.2319 13.8401 13.1668 13.8277 13.1059 13.8031C13.0451 13.7784 12.9897 13.742 12.9429 13.6959L12.9375 13.6905L12.491 13.237C12.4001 13.1432 12.3493 13.0176 12.3493 12.887C12.3493 12.7564 12.4001 12.6308 12.491 12.537L15.9715 9L12.492 5.4645C12.4011 5.37067 12.3503 5.24515 12.3503 5.1145C12.3503 4.98385 12.4011 4.85833 12.492 4.7645L12.9385 4.311C12.9846 4.26421 13.0394 4.22696 13.0999 4.20137C13.1603 4.17578 13.2253 4.16235 13.2909 4.16185C13.3566 4.16135 13.4217 4.17378 13.4826 4.19844C13.5434 4.22311 13.5988 4.25952 13.6456 4.30559L13.651 4.311L17.7465 8.471C17.884 8.61304 17.961 8.80302 17.961 9.00075C17.961 9.19848 17.884 9.38846 17.7465 9.5305Z" fill="#222222"/>
<path fill-rule="evenodd" clip-rule="evenodd" d="M0.253503 8.4695L4.35 4.3095C4.39608 4.26272 4.45091 4.22547 4.51138 4.19988C4.57185 4.17429 4.63677 4.16086 4.70243 4.16035C4.76809 4.15985 4.8332 4.17229 4.89406 4.19695C4.95491 4.22161 5.01031 4.25802 5.05709 4.30409L5.0625 4.3095L5.509 4.763C5.59991 4.85684 5.65074 4.98236 5.65074 5.113C5.65074 5.24365 5.59991 5.36917 5.509 5.463L2.0285 9L5.508 12.5355C5.59891 12.6293 5.64974 12.7549 5.64974 12.8855C5.64974 13.0161 5.59891 13.1417 5.508 13.2355L5.0615 13.689C5.01543 13.7358 4.96059 13.773 4.90013 13.7986C4.83966 13.8242 4.77474 13.8376 4.70908 13.8382C4.64342 13.8387 4.5783 13.8262 4.51745 13.8016C4.4566 13.7769 4.4012 13.7405 4.35441 13.6944L4.349 13.689L0.253503 9.5305C0.115505 9.38839 0.0383148 9.19809 0.0383148 9C0.0383148 8.80191 0.115505 8.61162 0.253503 8.4695Z" fill="#222222"/>
<path fill-rule="evenodd" clip-rule="evenodd" d="M7.7445 14.8435H7.1725C7.09579 14.8435 7.02011 14.8259 6.95132 14.7919C6.88252 14.758 6.82245 14.7087 6.77575 14.6479C6.72906 14.587 6.69699 14.5162 6.68204 14.441C6.66708 14.3658 6.66963 14.2881 6.6895 14.214L9.7855 2.6935C9.81401 2.58719 9.87679 2.49326 9.96412 2.42627C10.0514 2.35929 10.1584 2.32298 10.2685 2.323H10.821C10.8974 2.32309 10.9728 2.3407 11.0414 2.37449C11.11 2.40827 11.1699 2.45732 11.2165 2.51787C11.2631 2.57842 11.2953 2.64886 11.3105 2.72377C11.3256 2.79868 11.3234 2.87607 11.304 2.95L8.2275 14.473C8.19899 14.5793 8.13621 14.6732 8.04888 14.7402C7.96155 14.8072 7.85456 14.8435 7.7445 14.8435Z" fill="#222222"/>
</svg>
