<svg width="18" height="18" viewBox="0 0 18 18" fill="none" xmlns="http://www.w3.org/2000/svg">
<path fill-rule="evenodd" clip-rule="evenodd" d="M14.956 11.06C14.956 11.06 14.974 11.046 14.969 11.046C14.2529 11.0396 13.55 10.852 12.926 10.5008C12.3019 10.1495 11.7769 9.6459 11.4 9.03699C11.391 9.02299 11.377 9.01399 11.368 8.99999C11.377 8.98599 11.391 8.97699 11.4 8.963C11.7771 8.3538 12.3024 7.85006 12.9269 7.49876C13.5513 7.14746 14.2545 6.96004 14.971 6.95399C14.976 6.95399 14.96 6.94299 14.958 6.93999C15.6492 6.95227 16.3229 6.72215 16.8621 6.28958C17.4013 5.85701 17.7721 5.24929 17.91 4.57189C18.048 3.89449 17.9444 3.19018 17.6172 2.58118C17.2901 1.97219 16.7601 1.49696 16.1191 1.23797C15.4782 0.978977 14.7668 0.952576 14.1084 1.16335C13.45 1.37412 12.8862 1.80876 12.5148 2.39183C12.1434 2.9749 11.9879 3.6696 12.0753 4.35536C12.1626 5.04111 12.4873 5.67464 12.993 6.14599L9.75599 7.86799L3.456 4.51799C3.16322 4.36214 2.83628 4.28154 2.50461 4.28346C2.17293 4.28538 1.84695 4.36976 1.556 4.52899L0.410995 5.15699L7.63 8.99999L0.410995 12.843L1.557 13.471C1.84795 13.6302 2.17393 13.7146 2.50561 13.7165C2.83728 13.7184 3.16422 13.6379 3.457 13.482L9.757 10.132L12.992 11.854C12.4896 12.3238 12.1675 12.9546 12.0815 13.6371C11.9954 14.3195 12.1509 15.0105 12.5209 15.5904C12.8909 16.1702 13.4521 16.6023 14.1073 16.8117C14.7625 17.0212 15.4703 16.9947 16.108 16.7371C16.7458 16.4794 17.2732 16.0066 17.599 15.4008C17.9247 14.795 18.0283 14.0943 17.8916 13.4202C17.7549 12.7461 17.3866 12.1411 16.8507 11.71C16.3147 11.2789 15.6437 11.0489 14.956 11.06ZM15.14 2.04099C15.5282 2.06833 15.8997 2.21023 16.2072 2.44873C16.5148 2.68723 16.7447 3.01162 16.8678 3.38084C16.991 3.75005 17.0018 4.1475 16.8989 4.52287C16.7961 4.89825 16.5842 5.23467 16.2901 5.48958C15.996 5.74448 15.6329 5.9064 15.2467 5.95484C14.8605 6.00328 14.4686 5.93607 14.1207 5.76171C13.7727 5.58735 13.4843 5.31368 13.2919 4.97534C13.0995 4.63699 13.0119 4.24918 13.04 3.86099C13.0774 3.34127 13.3196 2.85765 13.7133 2.51639C14.1071 2.17512 14.6202 2.00414 15.14 2.04099ZM15.14 15.959C14.7518 15.9871 14.364 15.8995 14.0257 15.7071C13.6873 15.5147 13.4136 15.2263 13.2393 14.8783C13.0649 14.5304 12.9977 14.1385 13.0461 13.7523C13.0946 13.3661 13.2565 13.003 13.5114 12.7089C13.7663 12.4148 14.1027 12.2029 14.4781 12.1C14.8535 11.9972 15.2509 12.008 15.6202 12.1312C15.9894 12.2543 16.3138 12.4842 16.5523 12.7918C16.7908 13.0993 16.9327 13.4707 16.96 13.859C16.9969 14.3788 16.8259 14.8919 16.4846 15.2857C16.1433 15.6794 15.6597 15.9216 15.14 15.959Z" fill="#222222"/>
</svg>
