<svg width="18" height="18" viewBox="0 0 18 18" fill="none" xmlns="http://www.w3.org/2000/svg">
<path fill-rule="evenodd" clip-rule="evenodd" d="M15.75 3H12V2C12 1.73478 11.8946 1.48043 11.7071 1.29289C11.5196 1.10536 11.2652 1 11 1H6C5.73478 1 5.48043 1.10536 5.29289 1.29289C5.10536 1.48043 5 1.73478 5 2V3H1.25C1.1837 3 1.12011 3.02634 1.07322 3.07322C1.02634 3.12011 1 3.1837 1 3.25V3.75C1 3.8163 1.02634 3.87989 1.07322 3.92678C1.12011 3.97366 1.1837 4 1.25 4H2.25L3.457 16.548C3.46897 16.6721 3.52689 16.7873 3.61939 16.8709C3.71189 16.9545 3.8323 17.0006 3.957 17H13.049C13.1737 17.0006 13.2941 16.9545 13.3866 16.8709C13.4791 16.7873 13.537 16.6721 13.549 16.548L14.75 4H15.75C15.8163 4 15.8799 3.97366 15.9268 3.92678C15.9737 3.87989 16 3.8163 16 3.75V3.25C16 3.1837 15.9737 3.12011 15.9268 3.07322C15.8799 3.02634 15.8163 3 15.75 3ZM5.533 14.5C5.46739 14.5045 5.40154 14.496 5.33921 14.475C5.27689 14.454 5.21933 14.4209 5.16982 14.3776C5.12031 14.3343 5.07982 14.2817 5.05068 14.2227C5.02154 14.1638 5.00432 14.0996 5 14.034L4.465 6.034C4.45612 5.90139 4.50027 5.77069 4.58776 5.67063C4.67524 5.57058 4.79889 5.50939 4.9315 5.5005C5.06411 5.49162 5.19481 5.53577 5.29487 5.62326C5.39492 5.71074 5.45612 5.83439 5.465 5.967L6 13.967C6.00448 14.0327 5.99594 14.0986 5.97487 14.161C5.9538 14.2234 5.92062 14.281 5.87723 14.3305C5.83384 14.38 5.78109 14.4205 5.72202 14.4496C5.66295 14.4787 5.59871 14.4958 5.533 14.5ZM9 14C9 14.1326 8.94732 14.2598 8.85355 14.3536C8.75979 14.4473 8.63261 14.5 8.5 14.5C8.36739 14.5 8.24021 14.4473 8.14645 14.3536C8.05268 14.2598 8 14.1326 8 14V6C8 5.86739 8.05268 5.74021 8.14645 5.64645C8.24021 5.55268 8.36739 5.5 8.5 5.5C8.63261 5.5 8.75979 5.55268 8.85355 5.64645C8.94732 5.74021 9 5.86739 9 6V14ZM11 3H6V2H11V3ZM12 14.034C11.9911 14.1666 11.9299 14.2903 11.8299 14.3777C11.7298 14.4652 11.5991 14.5094 11.4665 14.5005C11.3339 14.4916 11.2102 14.4304 11.1228 14.3304C11.0353 14.2303 10.9911 14.0996 11 13.967L11.535 5.967C11.5439 5.83439 11.6051 5.71074 11.7051 5.62326C11.8052 5.53577 11.9359 5.49162 12.0685 5.5005C12.2011 5.50939 12.3248 5.57058 12.4122 5.67063C12.4997 5.77069 12.5439 5.90139 12.535 6.034L12 14.034Z" fill="#222222"/>
</svg>
