<svg width="18" height="18" viewBox="0 0 18 18" fill="none" xmlns="http://www.w3.org/2000/svg">
<g clip-path="url(#clip0_201_1528)">
<path fill-rule="evenodd" clip-rule="evenodd" d="M17.816 16.314L14.6775 12.1215C15.3744 11.3895 15.8753 10.4935 16.1338 9.51645C16.3923 8.53938 16.4001 7.51288 16.1563 6.53203C15.9125 5.55117 15.4252 4.6477 14.7394 3.90531C14.0536 3.16292 13.1915 2.60562 12.233 2.28503C11.2745 1.96445 10.2506 1.89096 9.25612 2.07136C8.26167 2.25176 7.32882 2.68022 6.54401 3.31706C5.7592 3.95389 5.1478 4.77849 4.76646 5.71448C4.38511 6.65046 4.24616 7.66755 4.36247 8.67152C4.69494 8.95889 5.08176 9.17653 5.49997 9.31152C5.21666 8.29114 5.26447 7.20717 5.63652 6.21569C6.00857 5.22422 6.68566 4.37638 7.5703 3.79427C8.45495 3.21216 9.5015 2.92581 10.5593 2.97644C11.617 3.02707 12.6315 3.41207 13.4565 4.07601C14.2815 4.73995 14.8745 5.64858 15.1501 6.67106C15.4258 7.69354 15.3699 8.77712 14.9904 9.76577C14.6109 10.7544 13.9275 11.5972 13.0385 12.1726C12.1495 12.7481 11.1008 13.0266 10.0435 12.968C10.028 12.9775 10.0145 12.991 9.99897 13C9.45101 13.2982 8.86095 13.5115 8.24897 13.6325C9.00748 13.9113 9.81455 14.0339 10.6216 13.9928C11.4287 13.9518 12.2192 13.7479 12.9455 13.3935L16.083 17.586C16.2593 17.794 16.508 17.9274 16.7789 17.9593C17.0497 17.9912 17.3226 17.9192 17.5424 17.7579C17.7623 17.5965 17.9127 17.3578 17.9635 17.0898C18.0143 16.8219 17.9616 16.5446 17.816 16.314Z" fill="#222222"/>
<path fill-rule="evenodd" clip-rule="evenodd" d="M11.7335 7.86849C11.5551 8.59481 11.2324 9.27783 10.7846 9.87688C10.3368 10.4759 9.7731 10.9788 9.12699 11.3555C7.85396 12.0078 6.38023 12.1508 5.00557 11.7552C3.63091 11.3596 2.45856 10.4552 1.72699 9.22599L2.93449 8.55799C3.49718 9.43493 4.36789 10.0693 5.37507 10.3362C6.38224 10.6031 7.45286 10.4832 8.37599 9.99999C8.86916 9.74397 9.30023 9.38298 9.63886 8.94241C9.97749 8.50185 10.2155 7.99242 10.336 7.44999L8.45449 6.88749L11.843 5.01349L13.757 8.47349L11.7335 7.86849Z" fill="#222222"/>
<path fill-rule="evenodd" clip-rule="evenodd" d="M4.278 2.53551C4.92026 2.08312 5.70463 1.87868 6.486 1.96001C7.01818 1.6462 7.58991 1.4049 8.186 1.24251C7.46266 0.8506 6.64497 0.666517 5.82347 0.710641C5.00197 0.754765 4.2087 1.02538 3.5315 1.49251C3.03415 1.85341 2.61845 2.31507 2.31149 2.8474C2.00453 3.37973 1.81321 3.97078 1.75 4.58201L0 4.28751L1.9 6.95351L4.561 5.05601L2.95 4.78451C2.99482 4.33571 3.13683 3.90204 3.36616 3.51366C3.59549 3.12528 3.90665 2.7915 4.278 2.53551Z" fill="#222222"/>
</g>
<defs>
<clipPath id="clip0_201_1528">
<rect width="18" height="18" fill="white"/>
</clipPath>
</defs>
</svg>
