<svg width="18" height="18" viewBox="0 0 18 18" fill="none" xmlns="http://www.w3.org/2000/svg">
<path fill-rule="evenodd" clip-rule="evenodd" d="M9 1H9.04289C9.1755 1 9.30268 1.05268 9.39644 1.14645L12.8535 4.60356C12.9473 4.69733 13 4.82451 13 4.95711V5H9V1ZM8 12.9951C8 12.377 8.39844 11.8516 8.94629 11.6738C9.0686 9.29785 10.8043 7.39356 13 7.1294V6.00001H8.5C8.22388 6.00001 8 5.77613 8 5.50001V1H1.5C1.22388 1 1 1.22388 1 1.5V16.5C1 16.7761 1.22388 17 1.5 17H8V12.9951ZM18 12.9954V17.6134C18 17.8269 17.8401 18 17.6429 18H9.3571C9.15989 18 9 17.8269 9 17.6134V12.9954C9 12.7818 9.15989 12.6087 9.3571 12.6087H9.93974V11.9427C9.93974 9.80736 11.5385 8.07637 13.5107 8.07637C15.4829 8.07637 17.0817 9.80735 17.0817 11.9427V12.6087H17.6429C17.8401 12.6087 18 12.7819 18 12.9954ZM11.6688 12.6087H15.3526V11.9427C15.3526 10.6616 14.6941 9.62291 13.5107 9.62291C12.3274 9.62291 11.6688 10.6616 11.6688 11.9427L11.6688 12.6087ZM14.582 15.0358C14.582 14.3953 14.1024 13.8759 13.5107 13.8759C12.9191 13.8759 12.4394 14.3953 12.4394 15.0358C12.4394 15.3779 12.5788 15.6824 12.7965 15.8948V16.7113C12.7965 16.9249 12.9564 17.098 13.1536 17.098H13.8678C14.0651 17.098 14.2249 16.9249 14.2249 16.7113V15.8948C14.4426 15.6824 14.582 15.3779 14.582 15.0358Z" fill="#222222"/>
</svg>
