<svg width="18" height="18" viewBox="0 0 18 18" fill="none" xmlns="http://www.w3.org/2000/svg">
<g clip-path="url(#clip0_201_2030)">
<path fill-rule="evenodd" clip-rule="evenodd" d="M9.5 3H8.5C8.36739 3 8.24021 3.05268 8.14645 3.14645C8.05268 3.24021 8 3.36739 8 3.5V8.793C8 8.85864 8.01293 8.92363 8.03804 8.98427C8.06316 9.04491 8.09998 9.10001 8.14639 9.14642L10.9502 11.9502C11.044 12.0439 11.1711 12.0966 11.3037 12.0966C11.4363 12.0966 11.5634 12.0439 11.6572 11.9502L12.3252 11.2822C12.4189 11.1884 12.4716 11.0613 12.4716 10.9287C12.4716 10.7961 12.4189 10.669 12.3252 10.5752L10 8.25V3.5C10 3.36739 9.94732 3.24021 9.85355 3.14645C9.75979 3.05268 9.63261 3 9.5 3Z" fill="#222222"/>
<path fill-rule="evenodd" clip-rule="evenodd" d="M9.00001 0.999763C6.91894 0.996962 4.91925 1.80795 3.42801 3.25952C2.36409 4.25002 1.65901 5.56562 1.42335 7H0.250498C0.217466 6.99992 0.184746 7.00639 0.154229 7.01903C0.123713 7.03167 0.0960061 7.05024 0.0727116 7.07366C0.0494171 7.09708 0.0309974 7.12488 0.018518 7.15546C0.00603863 7.18605 -0.000252769 7.2188 7.77334e-06 7.25183C5.95544e-06 7.28444 0.00652837 7.31671 0.0191908 7.34675C0.0318533 7.37679 0.0503997 7.404 0.0737378 7.42676L1.84181 9.4436C1.88646 9.48008 1.94235 9.5 2.00001 9.5C2.05767 9.5 2.11355 9.48008 2.15821 9.4436L3.92628 7.42676C3.94962 7.404 3.96816 7.37679 3.98082 7.34675C3.99349 7.31671 4.00001 7.28444 4.00001 7.25183C4.00027 7.2188 3.99398 7.18605 3.9815 7.15546C3.96902 7.12488 3.9506 7.09708 3.9273 7.07366C3.90401 7.05024 3.8763 7.03167 3.84579 7.01903C3.81527 7.00639 3.78255 6.99992 3.74952 7H2.48463C2.72606 5.80258 3.33606 4.7107 4.22914 3.87732C5.22697 2.94803 6.47448 2.3304 7.81847 2.10028C9.16246 1.87016 10.5444 2.03758 11.7945 2.58198C13.0447 3.12638 14.1086 4.02404 14.8557 5.16473C15.6027 6.30542 16.0004 7.63945 15.9998 9.003C15.9991 10.3665 15.6003 11.7002 14.8522 12.8402C14.1041 13.9802 13.0394 14.8769 11.7887 15.4202C10.5381 15.9635 9.15599 16.1296 7.81222 15.8983C6.46844 15.667 5.22148 15.0482 4.2245 14.118C4.17794 14.0733 4.11576 14.0486 4.05123 14.0492C3.9867 14.0497 3.92495 14.0755 3.87916 14.1209L3.5254 14.4747C3.50154 14.4984 3.48265 14.5267 3.46985 14.5578C3.45705 14.5889 3.45059 14.6222 3.45085 14.6559C3.45112 14.6895 3.45809 14.7228 3.47138 14.7537C3.48466 14.7846 3.50398 14.8126 3.52821 14.8359C4.48001 15.7283 5.63564 16.3744 6.89437 16.7179C8.1531 17.0613 9.47673 17.0917 10.7499 16.8063C12.023 16.5209 13.2071 15.9285 14.1988 15.0807C15.1905 14.2328 15.9598 13.1553 16.4397 11.942C16.9195 10.7287 17.0953 9.41641 16.9517 8.11959C16.8081 6.82277 16.3496 5.58074 15.616 4.50177C14.8824 3.42279 13.896 2.53962 12.7429 1.92922C11.5897 1.31882 10.3048 0.999735 9.00001 0.999763Z" fill="#222222"/>
</g>
<defs>
<clipPath id="clip0_201_2030">
<rect width="18" height="18" fill="white"/>
</clipPath>
</defs>
</svg>
