<svg width="18" height="18" viewBox="0 0 18 18" fill="none" xmlns="http://www.w3.org/2000/svg">
<path d="M12.35 6.00005C13.0956 6.00005 13.7 5.39563 13.7 4.65005C13.7 3.90446 13.0956 3.30005 12.35 3.30005C11.6044 3.30005 11 3.90446 11 4.65005C11 5.39563 11.6044 6.00005 12.35 6.00005Z" fill="#222222"/>
<path fill-rule="evenodd" clip-rule="evenodd" d="M10.0993 8.75611L6.63598 5.29291C6.24548 4.90241 5.6123 4.90241 5.2218 5.29291L2 8.51471V2H15V7.9035C15.3486 8.00579 15.6827 8.14105 16 8.30536V1.5C16 1.22382 15.7761 1 15.5 1H1.5C1.22388 1 1 1.22382 1 1.5V12.5C1 12.7761 1.22388 13 1.5 13H7.77887C7.87817 11.2564 8.76837 9.72462 10.0993 8.75611Z" fill="#222222"/>
<path fill-rule="evenodd" clip-rule="evenodd" d="M13.4129 8.8728C10.9552 8.8728 8.96291 10.8651 8.96291 13.3228C8.96291 15.7805 10.9552 17.7728 13.4129 17.7728C15.8706 17.7728 17.8629 15.7805 17.8629 13.3228C17.8629 10.8651 15.8706 8.8728 13.4129 8.8728ZM15.9129 13.5728C15.9129 13.7109 15.801 13.8228 15.6629 13.8228H13.9129V15.5728C13.9129 15.7109 13.801 15.8228 13.6629 15.8228H13.1629C13.0248 15.8228 12.9129 15.7109 12.9129 15.5728V13.8228H11.1629C11.0248 13.8228 10.9129 13.7109 10.9129 13.5728V13.0728C10.9129 12.9347 11.0248 12.8228 11.1629 12.8228H12.9129V11.0728C12.9129 10.9347 13.0248 10.8228 13.1629 10.8228H13.6629C13.801 10.8228 13.9129 10.9347 13.9129 11.0728V12.8228H15.6629C15.801 12.8228 15.9129 12.9347 15.9129 13.0728V13.5728Z" fill="#222222"/>
</svg>
