<svg width="18" height="18" viewBox="0 0 18 18" fill="none" xmlns="http://www.w3.org/2000/svg">
<path fill-rule="evenodd" clip-rule="evenodd" d="M7.374 14.0285C7.23503 13.9971 7.09784 13.9584 6.963 13.9125C6.703 14.1725 6.213 14.686 6.1065 14.7935C5.72186 15.1777 5.20039 15.3934 4.65674 15.3932C4.11309 15.3931 3.59175 15.177 3.20733 14.7926C2.82291 14.4082 2.60687 13.8869 2.60672 13.3432C2.60656 12.7996 2.8223 12.2781 3.2065 11.8935L6.8 8.29995C7.02231 8.08413 7.28607 7.91561 7.57533 7.80458C7.8646 7.69355 8.17337 7.64231 8.483 7.65395C8.98379 7.66228 9.4626 7.8611 9.822 8.20995C9.89945 8.29116 9.97272 8.37627 10.0415 8.46495C10.4397 8.19585 10.8681 7.9745 11.318 7.80545C11.1835 7.58254 11.0239 7.3757 10.8425 7.18895C10.1555 6.51865 9.23241 6.14545 8.27258 6.14994C7.31276 6.15443 6.39321 6.53625 5.7125 7.21295L2.1195 10.806C1.44658 11.4789 1.06853 12.3915 1.06853 13.3432C1.06853 14.2949 1.44658 15.2075 2.1195 15.8805C2.79242 16.5534 3.70509 16.9314 4.65675 16.9314C5.6084 16.9314 6.52108 16.5534 7.194 15.8805C7.265 15.8095 7.433 15.638 7.644 15.4235C7.50018 14.9705 7.40957 14.5024 7.374 14.0285Z" fill="#222222"/>
<path fill-rule="evenodd" clip-rule="evenodd" d="M8.463 10.0279C8.35577 9.95908 8.25621 9.87895 8.166 9.78894C7.89478 9.57396 7.6815 9.29469 7.5455 8.97644C7.46752 9.01985 7.39557 9.07331 7.3315 9.13544L6.5135 9.99144C6.67633 10.2986 6.883 10.5804 7.127 10.8279C7.32117 11.0178 7.53976 11.1809 7.777 11.3129C7.95383 10.8589 8.18412 10.4275 8.463 10.0279Z" fill="#222222"/>
<path fill-rule="evenodd" clip-rule="evenodd" d="M11.861 3.23954C12.0514 3.04895 12.2774 2.89773 12.5263 2.79453C12.7751 2.69134 13.0419 2.63818 13.3112 2.6381C13.5806 2.63803 13.8474 2.69103 14.0963 2.79408C14.3452 2.89714 14.5713 3.04823 14.7618 3.23871C14.9523 3.4292 15.1034 3.65535 15.2065 3.90425C15.3095 4.15315 15.3625 4.41991 15.3624 4.6893C15.3624 4.95869 15.3092 5.22542 15.206 5.47426C15.1028 5.7231 14.9516 5.94916 14.761 6.13954L13.5 7.40004C14.138 7.40022 14.7721 7.49975 15.3795 7.69504L15.8485 7.22654C16.1825 6.89346 16.4476 6.49781 16.6285 6.06221C16.8095 5.62661 16.9029 5.15961 16.9032 4.68791C16.9036 4.21621 16.811 3.74907 16.6306 3.31319C16.4503 2.87732 16.1859 2.48126 15.8524 2.14767C15.5189 1.81408 15.1229 1.5495 14.6871 1.36905C14.2513 1.18861 13.7841 1.09585 13.3124 1.09607C12.8407 1.09629 12.3737 1.18949 11.9381 1.37034C11.5024 1.55119 11.1067 1.81614 10.7735 2.15004C10.581 2.34254 8.6415 4.26104 8.098 4.80454C8.73673 4.76002 9.3771 4.8639 9.969 5.10804C10.2295 4.85004 11.7535 3.34704 11.861 3.23954Z" fill="#222222"/>
<path fill-rule="evenodd" clip-rule="evenodd" d="M10.49 12.323C10.199 11.2695 10.9505 10.8165 10.876 9.9165C10.3145 10.3306 9.85775 10.8704 9.54224 11.4926C9.22673 12.1149 9.06124 12.8023 9.059 13.5C9.1125 14.5443 9.51197 15.5411 10.1945 16.3333C10.8769 17.1255 11.8036 17.6681 12.8285 17.8755C12.924 17.8982 13.0211 17.9136 13.119 17.9215C13.6755 16.503 12.626 14.9215 11.9335 13.8905C11.357 13.0325 10.833 13.563 10.49 12.323Z" fill="#222222"/>
<path fill-rule="evenodd" clip-rule="evenodd" d="M17.62 13.7865C17.17 13.616 16.788 14.197 16.754 12.6285C16.7579 12.2115 16.9242 11.8124 17.2175 11.516C17.2805 11.475 17.3485 11.4424 17.42 11.419C17.367 11.322 17.3075 11.229 17.2475 11.136C17.237 11.1415 17.228 11.1485 17.217 11.1535C16.867 11.3155 16.821 11.3635 16.661 11.1535C16.6215 11.1061 16.5924 11.0508 16.5758 10.9914C16.5591 10.9319 16.5551 10.8696 16.5642 10.8085C16.5733 10.7475 16.5951 10.689 16.6284 10.6369C16.6616 10.5849 16.7054 10.5405 16.757 10.5065C16.3454 10.0551 15.8451 9.69342 15.2875 9.44395C14.7299 9.19447 14.1269 9.06259 13.516 9.05652C14.08 9.06402 14.7525 9.48202 14.4095 10.149C14.4595 10.043 13.2895 9.79002 13.13 9.79002C12.9155 9.79002 13.5685 8.98652 13.5085 9.05602C12.8741 9.05587 12.2468 9.19069 11.6685 9.45152C11.9725 9.64802 12.3115 9.57952 12.654 9.66402C12.7275 9.67252 12.754 9.68902 12.654 9.66402C12.1485 9.60552 12.8985 10.9925 12.8705 10.808C12.8853 10.6529 12.956 10.5085 13.0696 10.4018C13.1832 10.2952 13.3317 10.2335 13.4875 10.2285C13.6432 10.2235 13.7954 10.2754 13.9156 10.3745C14.0358 10.4736 14.1158 10.6132 14.1405 10.767C14.1346 10.997 14.0526 11.2185 13.9075 11.397C13.515 11.9125 13.4355 12.8305 13.24 12.597C11.407 11.847 11.609 12.839 12.2105 13.503C13.1735 14.5655 12.685 13.612 13.9465 14.168C14.961 14.6155 16.182 14.721 15.884 15.0585C14.984 16.0795 15.172 16.756 13.5775 17.952C13.7105 17.9485 14.1335 17.906 14.22 17.892C15.192 17.7212 16.0815 17.2374 16.753 16.5143C17.4246 15.7912 17.8414 14.8684 17.94 13.8865C17.8266 13.8809 17.7164 13.8465 17.62 13.7865Z" fill="#222222"/>
</svg>
