<svg width="18" height="18" viewBox="0 0 18 18" fill="none" xmlns="http://www.w3.org/2000/svg">
<g clip-path="url(#clip0_201_2663)">
<path fill-rule="evenodd" clip-rule="evenodd" d="M14 3V5.5C14 5.63261 13.9473 5.75979 13.8536 5.85355C13.7598 5.94732 13.6326 6 13.5 6H4.5C4.36739 6 4.24021 5.94732 4.14645 5.85355C4.05268 5.75979 4 5.63261 4 5.5V3H2.5C2.36739 3 2.24021 3.05268 2.14645 3.14645C2.05268 3.24021 2 3.36739 2 3.5V16.5C2 16.6326 2.05268 16.7598 2.14645 16.8536C2.24021 16.9473 2.36739 17 2.5 17H15.5C15.6326 17 15.7598 16.9473 15.8536 16.8536C15.9473 16.7598 16 16.6326 16 16.5V3.5C16 3.36739 15.9473 3.24021 15.8536 3.14645C15.7598 3.05268 15.6326 3 15.5 3H14Z" fill="#222222"/>
<path fill-rule="evenodd" clip-rule="evenodd" d="M11 3V2C11 1.46957 10.7893 0.960859 10.4142 0.585786C10.0391 0.210714 9.53043 0 9 0C8.46957 0 7.96086 0.210714 7.58579 0.585786C7.21071 0.960859 7 1.46957 7 2V3H5V5H13V3H11ZM10 3H8V2C8 1.73478 8.10536 1.48043 8.29289 1.29289C8.48043 1.10536 8.73478 1 9 1C9.26522 1 9.51957 1.10536 9.70711 1.29289C9.89464 1.48043 10 1.73478 10 2V3Z" fill="#222222"/>
</g>
<defs>
<clipPath id="clip0_201_2663">
<rect width="18" height="18" fill="white"/>
</clipPath>
</defs>
</svg>
