<svg width="18" height="18" viewBox="0 0 18 18" fill="none" xmlns="http://www.w3.org/2000/svg">
<path fill-rule="evenodd" clip-rule="evenodd" d="M2.66798 6.27102C3.63698 5.43054 4.88245 4.97787 6.16498 5.00002H12.5V2.40002C12.5 2.29393 12.5421 2.19219 12.6171 2.11717C12.6921 2.04216 12.7939 2.00002 12.9 2.00002C12.9974 1.99912 13.0916 2.0348 13.164 2.10002L16.926 5.82302C16.972 5.86962 16.9978 5.9325 16.9978 5.99802C16.9978 6.06353 16.972 6.12641 16.926 6.17302L13.166 9.90002C13.0934 9.96481 12.9993 10.0004 12.902 10C12.7959 10 12.6941 9.95787 12.6191 9.88286C12.5441 9.80785 12.502 9.7061 12.502 9.60002V7.00002H6.06098C5.2686 6.98849 4.50247 7.28392 3.92297 7.82446C3.34348 8.365 2.99553 9.10875 2.95198 9.90002C2.93018 10.3084 2.99369 10.7169 3.13846 11.0994C3.28323 11.4819 3.50608 11.8301 3.79282 12.1217C4.07957 12.4133 4.42391 12.6421 4.80392 12.7933C5.18392 12.9445 5.59126 13.0149 5.99998 13H9.49998C9.63259 13 9.75976 13.0527 9.85353 13.1465C9.9473 13.2402 9.99998 13.3674 9.99998 13.5V14.5C9.99998 14.6326 9.9473 14.7598 9.85353 14.8536C9.75976 14.9473 9.63259 15 9.49998 15H6.23698C4.96598 15.0215 3.73164 14.5739 2.76993 13.7426C1.80823 12.9113 1.18663 11.7547 1.02398 10.494C0.944126 9.71023 1.05152 8.91868 1.33734 8.1845C1.62315 7.45033 2.0792 6.79451 2.66798 6.27102Z" fill="#222222"/>
</svg>
