<svg width="18" height="18" viewBox="0 0 18 18" fill="none" xmlns="http://www.w3.org/2000/svg">
<path fill-rule="evenodd" clip-rule="evenodd" d="M16.2812 9.02735C16.2812 4.80665 13.1514 1.62305 9 1.62305C4.84863 1.62305 1.71875 4.80665 1.71875 9.02735C1.71875 11.6738 3.40625 13.6123 4.77637 14.75L2.27242 14.7745C2.12609 14.7614 2 14.8766 2 15.0235V15.75C2 15.9029 2.13603 16.0228 2.28723 16L6.73691 16.0023C6.87993 16.0098 7 15.8959 7 15.7526V14.9253C7 14.8348 6.9524 14.7523 6.87344 14.708C6.05565 14.2489 2.96875 12.1766 2.96875 9.02736C2.96875 5.51857 5.56152 2.87306 9 2.87306C12.4385 2.87306 15.0312 5.51857 15.0312 9.02736C15.0312 12.6735 11.9317 14.4407 11.157 14.7284C11.059 14.7648 11 14.8557 11 14.9603V15.7528C11 15.8959 11.12 16.0099 11.263 16.0024L15.7297 16.0015C15.8752 16.0015 16 15.9114 16 15.7528V15.0001C16 14.8524 15.8752 14.7431 15.7258 14.7431L13.4316 14.75C14.7666 13.6817 16.2812 11.8486 16.2812 9.02735Z" fill="#222222"/>
</svg>
