<svg width="18" height="18" viewBox="0 0 18 18" fill="none" xmlns="http://www.w3.org/2000/svg">
<path fill-rule="evenodd" clip-rule="evenodd" d="M3.95951 1.99996C3.65617 2.02082 3.39257 2.21595 3.28401 2.49996L2.22951 5.49996C2.14218 5.66775 2.20741 5.87457 2.3752 5.9619C2.43025 5.99055 2.49206 6.00371 2.55401 5.99996H3.55401C3.85753 5.97958 4.12137 5.78429 4.22951 5.49996L4.75701 3.99996H8.75701L5.24301 14H3.74301C3.43949 14.0203 3.17565 14.2156 3.06751 14.5L2.71751 15.5C2.63018 15.6678 2.69541 15.8746 2.8632 15.9619C2.91825 15.9906 2.98006 16.0037 3.04201 16H8.04201C8.34553 15.9796 8.60937 15.7843 8.71751 15.5L9.06751 14.5C9.15515 14.3326 9.09055 14.126 8.92323 14.0383C8.8678 14.0093 8.80546 13.996 8.74301 14H7.24301L10.757 3.99996H14.757L14.2295 5.49996C14.1422 5.66775 14.2074 5.87457 14.3752 5.9619C14.4302 5.99055 14.4921 6.00371 14.554 5.99996H15.554C15.8575 5.97958 16.1214 5.78429 16.2295 5.49996L17.284 2.49996C17.371 2.3317 17.3052 2.12475 17.1369 2.03772C17.0822 2.00944 17.021 1.9964 16.9595 1.99996H3.95951Z" fill="#222222"/>
</svg>
