<svg width="18" height="18" viewBox="0 0 18 18" fill="none" xmlns="http://www.w3.org/2000/svg">
<path fill-rule="evenodd" clip-rule="evenodd" d="M0.5 2C0.22386 2 0 2.22386 0 2.5V5.5C0 5.77614 0.22386 6 0.5 6H1.5C1.77614 6 2 5.77614 2 5.5V4H6V14H4.5C4.22386 14 4 14.2239 4 14.5V15.5C4 15.7761 4.22386 16 4.5 16H12.5C12.7761 16 13 15.7761 13 15.5V14.5C13 14.2239 12.7761 14 12.5 14H11V4H15V5.5C15 5.77614 15.2239 6 15.5 6H16.5C16.7761 6 17 5.77614 17 5.5V2.5C17 2.22386 16.7761 2 16.5 2H0.5Z" fill="#222222"/>
</svg>
