<svg width="18" height="18" viewBox="0 0 18 18" fill="none" xmlns="http://www.w3.org/2000/svg">
<path fill-rule="evenodd" clip-rule="evenodd" d="M2.21001 14.844C2.17201 14.844 2.15701 14.829 2.15701 14.7905V14.0325C2.15701 13.9865 2.15701 13.956 2.20301 13.956L2.58451 13.9525C3.12101 13.9525 3.41151 13.7915 3.41151 13.4395C3.41151 13.1025 3.12851 12.8805 2.56901 12.8805C2.17288 12.8807 1.7832 12.9808 1.43601 13.1715C1.39001 13.1945 1.38301 13.1715 1.38301 13.141V12.3825C1.38301 12.3365 1.37501 12.3215 1.42101 12.2985C1.83396 12.0917 2.29129 11.9893 2.75301 12C3.76401 12 4.39151 12.505 4.39151 13.3C4.39145 13.5152 4.32738 13.7254 4.20744 13.9041C4.08751 14.0827 3.91713 14.2216 3.71801 14.303C3.98213 14.3715 4.21559 14.5267 4.38089 14.7438C4.54619 14.9609 4.63375 15.2272 4.62951 15.5C4.62951 16.48 3.72551 17 2.66901 17C2.21843 17.0241 1.76883 16.9374 1.35951 16.7475C1.31351 16.732 1.31351 16.686 1.31351 16.6475V15.821C1.31351 15.7905 1.35201 15.775 1.38301 15.7905C1.7663 16.0004 2.19603 16.1109 2.63301 16.112C3.32151 16.112 3.59001 15.8285 3.59001 15.4685C3.59001 15.063 3.29901 14.8405 2.66301 14.8405L2.21001 14.844Z" fill="#222222"/>
<path fill-rule="evenodd" clip-rule="evenodd" d="M2.53502 0.988C2.26858 1.07629 1.99667 1.14711 1.72102 1.2C1.67102 1.2075 1.65302 1.1925 1.65302 1.15V0.49C1.65302 0.4525 1.66102 0.43 1.70602 0.4225C2.04384 0.32985 2.37059 0.200758 2.68052 0.0375C2.71952 0.01482 2.76344 0.0019512 2.80852 0L3.55002 0C3.58752 0 3.59502 0.0225 3.59502 0.053V4.091H4.26802C4.32102 4.091 4.33602 4.1135 4.34352 4.159V4.917C4.35102 4.9775 4.32802 5 4.28302 5H1.81352C1.76052 5 1.74552 4.9775 1.75302 4.932V4.159C1.7535 4.14949 1.75586 4.14017 1.75995 4.13158C1.76404 4.12298 1.76979 4.11527 1.77686 4.10889C1.78393 4.10252 1.79218 4.09759 1.80115 4.09441C1.81013 4.09122 1.81964 4.08983 1.82915 4.09032L1.83602 4.091H2.53602L2.53502 0.988Z" fill="#222222"/>
<path fill-rule="evenodd" clip-rule="evenodd" d="M1.25699 11C1.20699 11 1.19699 10.9775 1.19699 10.9325V10.3945C1.19393 10.376 1.19579 10.357 1.20237 10.3395C1.20895 10.3219 1.22003 10.3064 1.23449 10.2945C1.72445 9.89745 2.19373 9.47556 2.64049 9.03048C3.23099 8.45498 3.49049 8.08298 3.49049 7.66398C3.49049 7.19298 3.10599 6.91748 2.53749 6.91748C2.11604 6.93105 1.70373 7.04376 1.33399 7.24648C1.28899 7.26898 1.25899 7.25398 1.25899 7.20148V6.46348C1.25604 6.44572 1.25881 6.42748 1.2669 6.4114C1.27499 6.39531 1.28798 6.38221 1.30399 6.37398C1.7537 6.11732 2.26483 5.98803 2.78249 5.99998C2.99232 5.9764 3.20476 5.99739 3.40592 6.06157C3.60707 6.12575 3.79242 6.23167 3.94982 6.37241C4.10722 6.51316 4.23313 6.68554 4.31933 6.8783C4.40552 7.07105 4.45004 7.27983 4.44999 7.49098C4.45467 7.81466 4.38786 8.13539 4.25433 8.43028C4.1208 8.72518 3.92383 8.98697 3.67749 9.19698C3.3784 9.51987 3.06122 9.82553 2.72749 10.1125C3.24349 10.1125 4.30649 10.0985 4.74749 10.0985C4.79999 10.0985 4.80749 10.1135 4.79999 10.166L4.57749 10.94C4.57395 10.9586 4.56345 10.9752 4.54812 10.9863C4.53279 10.9975 4.51379 11.0024 4.49499 11H1.25699Z" fill="#222222"/>
<path d="M17.5 2H7.5C7.22386 2 7 2.22386 7 2.5V3.5C7 3.77614 7.22386 4 7.5 4H17.5C17.7761 4 18 3.77614 18 3.5V2.5C18 2.22386 17.7761 2 17.5 2Z" fill="#222222"/>
<path d="M17.5 8H7.5C7.22386 8 7 8.22386 7 8.5V9.5C7 9.77614 7.22386 10 7.5 10H17.5C17.7761 10 18 9.77614 18 9.5V8.5C18 8.22386 17.7761 8 17.5 8Z" fill="#222222"/>
<path d="M17.5 14H7.5C7.22386 14 7 14.2239 7 14.5V15.5C7 15.7761 7.22386 16 7.5 16H17.5C17.7761 16 18 15.7761 18 15.5V14.5C18 14.2239 17.7761 14 17.5 14Z" fill="#222222"/>
</svg>
