<svg width="18" height="18" viewBox="0 0 18 18" fill="none" xmlns="http://www.w3.org/2000/svg">
<path fill-rule="evenodd" clip-rule="evenodd" d="M11.5 14H10V11H8V14H6.5C6.36739 14 6.24021 14.0527 6.14645 14.1464C6.05268 14.2402 6 14.3674 6 14.5V15.5C6 15.6326 6.05268 15.7598 6.14645 15.8536C6.24021 15.9473 6.36739 16 6.5 16H11.5C11.6326 16 11.7598 15.9473 11.8536 15.8536C11.9473 15.7598 12 15.6326 12 15.5V14.5C12 14.3674 11.9473 14.2402 11.8536 14.1464C11.7598 14.0527 11.6326 14 11.5 14Z" fill="#222222"/>
<path fill-rule="evenodd" clip-rule="evenodd" d="M15.5 2H2.5C2.36739 2 2.24021 2.05268 2.14645 2.14645C2.05268 2.24021 2 2.36739 2 2.5V5.5C2 5.63261 2.05268 5.75979 2.14645 5.85355C2.24021 5.94732 2.36739 6 2.5 6H3.5C3.63261 6 3.75979 5.94732 3.85355 5.85355C3.94732 5.75979 4 5.63261 4 5.5V4H8V8H10V4H14V5.5C14 5.63261 14.0527 5.75979 14.1464 5.85355C14.2402 5.94732 14.3674 6 14.5 6H15.5C15.6326 6 15.7598 5.94732 15.8536 5.85355C15.9473 5.75979 16 5.63261 16 5.5V2.5C16 2.36739 15.9473 2.24021 15.8536 2.14645C15.7598 2.05268 15.6326 2 15.5 2Z" fill="#222222"/>
<path d="M15.75 9H2.25C2.11193 9 2 9.11193 2 9.25V9.75C2 9.88807 2.11193 10 2.25 10H15.75C15.8881 10 16 9.88807 16 9.75V9.25C16 9.11193 15.8881 9 15.75 9Z" fill="#222222"/>
</svg>
