<svg width="18" height="18" viewBox="0 0 18 18" fill="none" xmlns="http://www.w3.org/2000/svg">
<path d="M3.6 1H3.4C2.6268 1 2 1.6268 2 2.4V2.6C2 3.3732 2.6268 4 3.4 4H3.6C4.3732 4 5 3.3732 5 2.6V2.4C5 1.6268 4.3732 1 3.6 1Z" fill="#222222"/>
<path d="M3.6 7H3.4C2.6268 7 2 7.6268 2 8.4V8.6C2 9.3732 2.6268 10 3.4 10H3.6C4.3732 10 5 9.3732 5 8.6V8.4C5 7.6268 4.3732 7 3.6 7Z" fill="#222222"/>
<path d="M3.6 13H3.4C2.6268 13 2 13.6268 2 14.4V14.6C2 15.3732 2.6268 16 3.4 16H3.6C4.3732 16 5 15.3732 5 14.6V14.4C5 13.6268 4.3732 13 3.6 13Z" fill="#222222"/>
<path d="M16.5 14H6.5C6.22386 14 6 14.2239 6 14.5V15.5C6 15.7761 6.22386 16 6.5 16H16.5C16.7761 16 17 15.7761 17 15.5V14.5C17 14.2239 16.7761 14 16.5 14Z" fill="#222222"/>
<path d="M16.5 8H6.5C6.22386 8 6 8.22386 6 8.5V9.5C6 9.77614 6.22386 10 6.5 10H16.5C16.7761 10 17 9.77614 17 9.5V8.5C17 8.22386 16.7761 8 16.5 8Z" fill="#222222"/>
<path d="M16.5 2H6.5C6.22386 2 6 2.22386 6 2.5V3.5C6 3.77614 6.22386 4 6.5 4H16.5C16.7761 4 17 3.77614 17 3.5V2.5C17 2.22386 16.7761 2 16.5 2Z" fill="#222222"/>
</svg>
