<svg width="18" height="18" viewBox="0 0 18 18" fill="none" xmlns="http://www.w3.org/2000/svg">
<path fill-rule="evenodd" clip-rule="evenodd" d="M15.332 6.27102C14.363 5.43054 13.1175 4.97787 11.835 5.00002H5.5V2.40002C5.5 2.29393 5.45786 2.19219 5.38285 2.11717C5.30783 2.04216 5.20609 2.00002 5.1 2.00002C5.00259 1.99912 4.90838 2.0348 4.836 2.10002L1.072 5.82502C1.02596 5.87162 1.00014 5.9345 1.00014 6.00002C1.00014 6.06553 1.02596 6.12841 1.072 6.17502L4.834 9.90002C4.90715 9.96528 5.00199 10.0009 5.1 10C5.20609 10 5.30783 9.95787 5.38285 9.88286C5.45786 9.80785 5.5 9.7061 5.5 9.60002V7.00002H11.939C12.7314 6.98849 13.4975 7.28392 14.077 7.82446C14.6565 8.365 15.0045 9.10875 15.048 9.90002C15.0698 10.3084 15.0063 10.7169 14.8615 11.0994C14.7168 11.4819 14.4939 11.8301 14.2072 12.1217C13.9204 12.4133 13.5761 12.6421 13.1961 12.7933C12.8161 12.9445 12.4087 13.0149 12 13H8.5C8.3674 13 8.24022 13.0527 8.14645 13.1465C8.05268 13.2402 8 13.3674 8 13.5V14.5C8 14.6326 8.05268 14.7598 8.14645 14.8536C8.24022 14.9473 8.3674 15 8.5 15H11.763C13.034 15.0215 14.2683 14.5739 15.2301 13.7426C16.1918 12.9113 16.8134 11.7547 16.976 10.494C17.0559 9.71023 16.9485 8.91868 16.6626 8.1845C16.3768 7.45033 15.9208 6.79451 15.332 6.27102Z" fill="#222222"/>
</svg>
