<svg width="22" height="22" viewBox="0 0 22 22" fill="none" xmlns="http://www.w3.org/2000/svg">
<mask id="mask0_606_4872" style="mask-type:alpha" maskUnits="userSpaceOnUse" x="0" y="0" width="22" height="22">
<path fill-rule="evenodd" clip-rule="evenodd" d="M19.8993 11.0336C19.8993 5.87495 16.0739 1.98389 11 1.98389C5.92612 1.98389 2.10071 5.87495 2.10071 11.0336C2.10071 14.2682 4.16321 16.6374 5.8378 18.028L2.77742 18.0579C2.59857 18.0418 2.44446 18.1827 2.44446 18.3623V19.2501C2.44446 19.437 2.61072 19.5836 2.79552 19.5557L8.23401 19.5585C8.40882 19.5677 8.55557 19.4284 8.55557 19.2534V18.2423C8.55557 18.1316 8.49739 18.0307 8.40088 17.9766C7.40136 17.4154 3.62849 14.8827 3.62849 11.0336C3.62849 6.74508 6.79743 3.51168 11 3.51168C15.2026 3.51168 18.3715 6.74508 18.3715 11.0336C18.3715 15.4901 14.5832 17.6499 13.6363 18.0016C13.5165 18.046 13.4445 18.1572 13.4445 18.285V19.2536C13.4445 19.4285 13.5911 19.5678 13.7659 19.5587L19.2252 19.5576C19.4031 19.5576 19.5556 19.4474 19.5556 19.2535V18.3336C19.5556 18.1531 19.4031 18.0195 19.2204 18.0195L16.4165 18.028C18.0481 16.7222 19.8993 14.4818 19.8993 11.0336Z" fill="#222222"/>
</mask>
<g mask="url(#mask0_606_4872)">
<rect width="22" height="22" fill="#222222"/>
</g>
</svg>
