<svg width="22" height="22" viewBox="0 0 22 22" fill="none" xmlns="http://www.w3.org/2000/svg">
<mask id="mask0_606_5870" style="mask-type:alpha" maskUnits="userSpaceOnUse" x="0" y="0" width="22" height="22">
<path fill-rule="evenodd" clip-rule="evenodd" d="M9.63662 19.5555H8.55556V17.1111H9.0139C8.99801 16.9088 8.98334 16.7065 8.98334 16.4999C8.98334 16.2934 8.9974 16.0911 9.0139 15.8888H8.55556V13.4444H9.63662C9.82712 13.0165 10.0571 12.6074 10.3235 12.2222H8.55556V9.77772H13.1511C14.3539 9.17437 15.6972 8.90661 17.0394 9.00265C18.3817 9.09869 19.6731 9.55498 20.7778 10.3234V1.83328C20.7778 1.6712 20.7134 1.51576 20.5988 1.40116C20.4842 1.28655 20.3288 1.22217 20.1667 1.22217H1.83334C1.67126 1.22217 1.51582 1.28655 1.40122 1.40116C1.28661 1.51576 1.22223 1.6712 1.22223 1.83328V20.1666C1.22223 20.3287 1.28661 20.4841 1.40122 20.5987C1.51582 20.7133 1.67126 20.7777 1.83334 20.7777H10.3235C10.0571 20.3925 9.82712 19.9834 9.63662 19.5555ZM2.44445 2.44439H19.5556V8.5555H2.44445V2.44439ZM7.33334 19.5555H2.44445V17.1111H7.33334V19.5555ZM7.33334 15.8888H2.44445V13.4444H7.33334V15.8888ZM7.33334 12.2222H2.44445V9.77772H7.33334V12.2222Z" fill="#222222"/>
<path fill-rule="evenodd" clip-rule="evenodd" d="M16.5 11.061C15.4243 11.061 14.3727 11.38 13.4783 11.9777C12.5839 12.5753 11.8868 13.4247 11.4751 14.4186C11.0635 15.4124 10.9557 16.506 11.1656 17.561C11.3755 18.616 11.8935 19.5852 12.6541 20.3458C13.4148 21.1064 14.3839 21.6244 15.4389 21.8343C16.494 22.0442 17.5875 21.9365 18.5814 21.5248C19.5752 21.1131 20.4246 20.416 21.0223 19.5216C21.6199 18.6272 21.9389 17.5756 21.9389 16.4999C21.9389 15.0574 21.3659 13.674 20.3459 12.654C19.3259 11.6341 17.9425 11.061 16.5 11.061ZM19.5555 16.8055C19.5555 16.8865 19.5234 16.9642 19.466 17.0215C19.4087 17.0788 19.331 17.111 19.25 17.111H17.1111V19.2499C17.1111 19.331 17.0789 19.4087 17.0216 19.466C16.9643 19.5233 16.8866 19.5555 16.8055 19.5555H16.1944C16.1134 19.5555 16.0357 19.5233 15.9784 19.466C15.9211 19.4087 15.8889 19.331 15.8889 19.2499V17.111H13.75C13.6689 17.111 13.5912 17.0788 13.5339 17.0215C13.4766 16.9642 13.4444 16.8865 13.4444 16.8055V16.1944C13.4444 16.1133 13.4766 16.0356 13.5339 15.9783C13.5912 15.921 13.6689 15.8888 13.75 15.8888H15.8889V13.7499C15.8889 13.6689 15.9211 13.5912 15.9784 13.5339C16.0357 13.4766 16.1134 13.4444 16.1944 13.4444H16.8055C16.8866 13.4444 16.9643 13.4766 17.0216 13.5339C17.0789 13.5912 17.1111 13.6689 17.1111 13.7499V15.8888H19.25C19.331 15.8888 19.4087 15.921 19.466 15.9783C19.5234 16.0356 19.5555 16.1133 19.5555 16.1944V16.8055Z" fill="#222222"/>
</mask>
<g mask="url(#mask0_606_5870)">
<rect width="22" height="22" fill="#222222"/>
</g>
</svg>
