<svg width="22" height="22" viewBox="0 0 22 22" fill="none" xmlns="http://www.w3.org/2000/svg">
<mask id="mask0_606_1071" style="mask-type:alpha" maskUnits="userSpaceOnUse" x="0" y="0" width="22" height="22">
<path d="M18.975 18.1737H7.97502C7.51956 18.1737 7.15002 17.8041 7.15002 17.3487C7.15002 16.8932 7.51956 16.5237 7.97502 16.5237H18.975C19.4305 16.5237 19.8 16.8932 19.8 17.3487C19.8 17.8041 19.4305 18.1737 18.975 18.1737Z" fill="#292929"/>
<path d="M18.975 11.5736H7.97502C7.51956 11.5736 7.15002 11.2041 7.15002 10.7486C7.15002 10.2931 7.51956 9.92358 7.97502 9.92358H18.975C19.4305 9.92358 19.8 10.2931 19.8 10.7486C19.8 11.2041 19.4305 11.5736 18.975 11.5736Z" fill="#292929"/>
<path d="M18.975 4.97373H7.97502C7.51956 4.97373 7.15002 4.6042 7.15002 4.14873C7.15002 3.69326 7.51956 3.32373 7.97502 3.32373H18.975C19.4305 3.32373 19.8 3.69326 19.8 4.14873C19.8 4.6042 19.4305 4.97373 18.975 4.97373Z" fill="#292929"/>
<path d="M3.42084 6.07149V3.18399H3.39506L2.90199 3.52559C2.78598 3.60615 2.71186 3.63194 2.58295 3.63194C2.32836 3.63194 2.13177 3.4418 2.13177 3.17109C2.13177 2.98096 2.20912 2.82627 2.38959 2.70381L3.23393 2.13984C3.50463 1.95938 3.73989 1.93359 4.00415 1.93359C4.49722 1.93359 4.78725 2.23008 4.78725 2.69737V6.07149C4.78725 6.48076 4.51333 6.74502 4.10405 6.74502C3.69478 6.74502 3.42084 6.48076 3.42084 6.07149Z" fill="#292929"/>
<path d="M1.87556 12.6748C1.87556 12.4234 1.99158 12.2301 2.24938 12.0142L3.52878 10.9185C4.05085 10.4705 4.1991 10.2675 4.1991 9.99034C4.1991 9.69708 3.97351 9.49405 3.64158 9.49405C3.39665 9.49405 3.22908 9.60685 3.05506 9.85821C2.87459 10.1225 2.71023 10.2191 2.4492 10.2191C2.10115 10.2191 1.88845 10.0161 1.88845 9.6874C1.88845 9.58105 1.90779 9.48115 1.94968 9.38447C2.1946 8.83017 2.8488 8.48535 3.6609 8.48535C4.79206 8.48535 5.51393 9.05576 5.51393 9.9001C5.51393 10.5253 5.19166 10.8508 4.46979 11.476L3.62223 12.2075V12.2333H5.09821C5.43981 12.2333 5.63317 12.4363 5.63317 12.7489C5.63317 13.0551 5.43981 13.2646 5.09821 13.2646H2.51364C2.06891 13.2646 1.87556 13.0164 1.87556 12.6748Z" fill="#292929"/>
<path d="M1.84659 19.0362C1.81758 18.9556 1.80469 18.8654 1.80469 18.7945C1.80469 18.4561 2.03028 18.2466 2.39765 18.2466C2.65225 18.2466 2.81982 18.3304 2.95518 18.527C3.1292 18.7816 3.30001 18.9331 3.70606 18.9331C4.04766 18.9331 4.29258 18.7268 4.29258 18.44C4.29258 18.1081 4.03798 17.9308 3.56426 17.9308H3.53203C3.21298 17.9308 3.05186 17.7536 3.05186 17.4796C3.05186 17.2186 3.21298 17.0317 3.53203 17.0317H3.56426C3.98643 17.0317 4.23135 16.848 4.23135 16.5483C4.23135 16.2615 4.01866 16.081 3.67383 16.081C3.39668 16.081 3.2001 16.1938 3.06797 16.4258C2.91329 16.6998 2.7457 16.7997 2.44922 16.7997C2.0754 16.7997 1.8917 16.5805 1.8917 16.2776C1.8917 16.1874 1.90459 16.1165 1.93682 16.0262C2.10117 15.5783 2.66836 15.0852 3.66738 15.0852C4.70186 15.0852 5.48818 15.5235 5.48818 16.3517C5.48818 16.9543 5.04667 17.3282 4.53427 17.4313V17.4571C5.24325 17.5312 5.68154 17.9212 5.68154 18.5399C5.68154 19.4294 4.91776 19.9933 3.67382 19.9933C2.591 19.9933 2.00449 19.4777 1.84659 19.0362Z" fill="#292929"/>
</mask>
<g mask="url(#mask0_606_1071)">
<rect width="22" height="22" fill="#222222"/>
</g>
</svg>
