<svg width="22" height="22" viewBox="0 0 22 22" fill="none" xmlns="http://www.w3.org/2000/svg">
<mask id="mask0_594_5161" style="mask-type:alpha" maskUnits="userSpaceOnUse" x="0" y="0" width="22" height="22">
<g clip-path="url(#clip0_594_5161)">
<path d="M11.091 20.1338L2.72665 20.1607C2.48702 20.1565 2.25873 20.0579 2.09151 19.8862C1.92429 19.7145 1.83168 19.4837 1.83386 19.244V6.40467C1.83289 6.16797 1.92445 5.94026 2.08902 5.77012C2.25358 5.59999 2.47811 5.50089 2.71471 5.49398H3.06671L3.05999 3.66064H2.70039C1.97966 3.67347 1.29281 3.96888 0.787808 4.48326C0.282804 4.99764 6.41277e-05 5.6898 0.000498663 6.41064V19.238C-0.0014907 19.9623 0.282508 20.6582 0.790757 21.1742C1.29901 21.6903 1.99042 21.9849 2.71469 21.994H11.9733C12.1143 21.9919 12.255 21.9786 12.394 21.9543C11.8611 21.4244 11.4207 20.8091 11.091 20.1338Z" fill="#222222"/>
<path d="M21.3984 16.1944H18.0373V12.8333C18.0373 12.6712 17.9729 12.5158 17.8583 12.4012C17.7437 12.2866 17.5883 12.2222 17.4262 12.2222H16.8151C16.653 12.2222 16.4976 12.2866 16.383 12.4012C16.2684 12.5158 16.204 12.6712 16.204 12.8333V16.1944H12.8429C12.6808 16.1944 12.5253 16.2588 12.4107 16.3734C12.2961 16.488 12.2318 16.6434 12.2318 16.8055V17.4166C12.2318 17.5787 12.2961 17.7341 12.4107 17.8487C12.5253 17.9633 12.6808 18.0277 12.8429 18.0277H16.204V21.3888C16.204 21.5509 16.2684 21.7064 16.383 21.821C16.4976 21.9356 16.653 21.9999 16.8151 21.9999H17.4262C17.5883 21.9999 17.7437 21.9356 17.8583 21.821C17.9729 21.7064 18.0373 21.5509 18.0373 21.3888V18.0277H21.3984C21.5605 18.0277 21.7159 17.9633 21.8305 17.8487C21.9451 17.7341 22.0095 17.5787 22.0095 17.4166V16.8055C22.0095 16.6434 21.9451 16.488 21.8305 16.3734C21.7159 16.2588 21.5605 16.1944 21.3984 16.1944Z" fill="#222222"/>
<path d="M10.399 17.1769C10.3991 16.9489 10.4106 16.721 10.4335 16.4941H7.61568C7.37605 16.49 7.14776 16.3913 6.98054 16.2196C6.81332 16.0479 6.72071 15.8171 6.72288 15.5775V2.73816C6.72191 2.50146 6.81348 2.27376 6.97804 2.10362C7.1426 1.93348 7.36714 1.83439 7.60374 1.82747H12.2235V5.19455C12.2235 5.43765 12.3201 5.67077 12.492 5.84266C12.6639 6.01456 12.897 6.11115 13.1401 6.11122H17.7312V10.4854C18.3598 10.5426 18.977 10.6887 19.5645 10.9193V5.56217C19.5662 4.91472 19.3123 4.29279 18.8579 3.8315L15.7785 0.710277C15.5539 0.483668 15.2866 0.30373 14.9921 0.180825C14.6977 0.0579195 14.3818 -0.00552613 14.0627 -0.00585938H7.58936C6.86864 0.00696114 6.18179 0.302381 5.67678 0.816758C5.17178 1.33113 4.88904 2.0233 4.88948 2.74414V15.5715C4.88749 16.2958 5.17149 16.9917 5.67973 17.5077C6.18798 18.0238 6.87939 18.3184 7.60366 18.3275H10.5044C10.4364 17.9477 10.4012 17.5627 10.399 17.1769ZM14.0568 1.82747H14.0628C14.2166 1.82744 14.3643 1.88838 14.4733 1.99696L16.7237 4.27788H14.0568V1.82747Z" fill="#222222"/>
</g>
</mask>
<g mask="url(#mask0_594_5161)">
<rect width="22" height="22" fill="#222222"/>
</g>
<defs>
<clipPath id="clip0_594_5161">
<rect width="22" height="22" fill="white"/>
</clipPath>
</defs>
</svg>
