<svg width="22" height="22" viewBox="0 0 22 22" fill="none" xmlns="http://www.w3.org/2000/svg">
<mask id="mask0_594_5732" style="mask-type:alpha" maskUnits="userSpaceOnUse" x="0" y="0" width="22" height="22">
<g clip-path="url(#clip0_594_5732)">
<path d="M10.647 18.945H5.17179C4.93219 18.9404 4.70404 18.8417 4.53673 18.6701C4.36941 18.4986 4.27639 18.268 4.27779 18.0284V2.74582C4.27656 2.50887 4.36799 2.28083 4.53256 2.11035C4.69712 1.93987 4.9218 1.84046 5.15865 1.83333H12.2235V6.43278C12.2235 6.67587 12.3201 6.909 12.492 7.08089C12.6639 7.25279 12.897 7.34938 13.1401 7.34944H17.7318V10.4268C18.3605 10.4851 18.9778 10.6323 19.5651 10.8641V5.56445C19.5674 5.24406 19.5062 4.92639 19.3849 4.62983C19.2636 4.33327 19.0847 4.06371 18.8585 3.83675L15.7767 0.713167C15.3229 0.258505 14.7075 0.00208366 14.0651 0L5.14557 0C4.42459 0.0123813 3.73736 0.307623 3.23207 0.82206C2.72678 1.3365 2.44391 2.02891 2.44446 2.75V18.0242C2.44376 18.748 2.72823 19.4429 3.23625 19.9584C3.74428 20.4739 4.43495 20.7685 5.15865 20.7784H11.4776C11.1098 20.2127 10.8298 19.5946 10.647 18.945ZM14.0568 1.83333H14.0628C14.2158 1.83808 14.3618 1.89857 14.4733 2.00342L17.5552 5.127C17.6561 5.2323 17.7157 5.37044 17.723 5.51611H14.0568V1.83333Z" fill="#222222"/>
<path d="M21.3889 16.1944H18.0278V12.8333C18.0278 12.6712 17.9634 12.5158 17.8488 12.4012C17.7342 12.2866 17.5788 12.2222 17.4167 12.2222H16.8056C16.6435 12.2222 16.488 12.2866 16.3734 12.4012C16.2588 12.5158 16.1945 12.6712 16.1945 12.8333V16.1944H12.8333C12.6713 16.1944 12.5158 16.2588 12.4012 16.3734C12.2866 16.488 12.2222 16.6434 12.2222 16.8055V17.4166C12.2222 17.5787 12.2866 17.7341 12.4012 17.8487C12.5158 17.9633 12.6713 18.0277 12.8333 18.0277H16.1945V21.3888C16.1945 21.5509 16.2588 21.7064 16.3734 21.821C16.488 21.9356 16.6435 21.9999 16.8056 21.9999H17.4167C17.5788 21.9999 17.7342 21.9356 17.8488 21.821C17.9634 21.7064 18.0278 21.5509 18.0278 21.3888V18.0277H21.3889C21.551 18.0277 21.7064 17.9633 21.821 17.8487C21.9356 17.7341 22 17.5787 22 17.4166V16.8055C22 16.6434 21.9356 16.488 21.821 16.3734C21.7064 16.2588 21.551 16.1944 21.3889 16.1944Z" fill="#222222"/>
<path d="M14.6589 10.8636V10.701C14.6589 10.5389 14.5945 10.3834 14.4799 10.2688C14.3653 10.1542 14.2099 10.0898 14.0478 10.0898H7.93429C7.77222 10.0898 7.61678 10.1542 7.50217 10.2688C7.38757 10.3834 7.32318 10.5389 7.32318 10.701V11.3121C7.32318 11.4741 7.38757 11.6296 7.50217 11.7442C7.61678 11.8588 7.77222 11.9232 7.93429 11.9232H12.8449C13.3902 11.477 14.0024 11.1194 14.6589 10.8636Z" fill="#222222"/>
<path d="M11.2956 13.7563H7.93429C7.77222 13.7563 7.61678 13.8207 7.50217 13.9353C7.38757 14.0499 7.32318 14.2054 7.32318 14.3675V14.9786C7.32318 15.1406 7.38757 15.2961 7.50217 15.4107C7.61678 15.5253 7.77222 15.5897 7.93429 15.5897H10.5699C10.7196 14.946 10.9642 14.3281 11.2956 13.7563Z" fill="#222222"/>
</g>
</mask>
<g mask="url(#mask0_594_5732)">
<rect width="22" height="22" fill="#222222"/>
</g>
<defs>
<clipPath id="clip0_594_5732">
<rect width="22" height="22" fill="white"/>
</clipPath>
</defs>
</svg>
