<svg width="22" height="22" viewBox="0 0 22 22" fill="none" xmlns="http://www.w3.org/2000/svg">
<mask id="mask0_594_395" style="mask-type:alpha" maskUnits="userSpaceOnUse" x="0" y="0" width="22" height="22">
<g clip-path="url(#clip0_594_395)">
<path d="M5.5166 1.77735C5.92969 1.91797 6.30273 2.10645 6.62402 2.3379C6.75683 2.4336 6.91015 2.4795 7.06152 2.4795C7.29492 2.4795 7.52441 2.3711 7.6709 2.16798C7.91309 1.83204 7.83692 1.36329 7.50098 1.1211C7.0586 0.801764 6.55274 0.544934 5.99903 0.357434C5.60645 0.221694 5.18067 0.433604 5.04786 0.826184C4.91407 1.21876 5.125 1.64454 5.5166 1.77735Z" fill="#222222"/>
<path d="M7.791 3.9697C7.87401 4.25681 7.916 4.5488 7.916 4.832C7.91502 4.93747 7.91014 5.04196 7.90038 5.14548C7.86229 5.55857 8.16503 5.9238 8.57714 5.96286C8.60155 5.96481 8.62499 5.96579 8.64843 5.96579C9.03124 5.96579 9.35741 5.67477 9.39452 5.2861C9.40819 5.13962 9.41503 4.99215 9.416 4.83786C9.416 4.40817 9.35448 3.97556 9.23241 3.55368C9.11718 3.15622 8.70409 2.92575 8.3037 3.04098C7.90526 3.15621 7.67577 3.57224 7.791 3.9697Z" fill="#222222"/>
<path d="M7.12303 7.16698C6.89549 7.51854 6.62596 7.87401 6.29783 8.25389C6.02732 8.56834 6.06248 9.04198 6.37595 9.31248C6.51853 9.43455 6.69236 9.49412 6.86618 9.49412C7.07614 9.49412 7.2861 9.40623 7.43454 9.23435C7.80759 8.80076 8.11813 8.3906 8.38278 7.97947C8.60739 7.63181 8.50778 7.16795 8.15915 6.94334C7.81149 6.71775 7.34764 6.81933 7.12303 7.16698Z" fill="#222222"/>
<path d="M2.46778 1.57809C2.50489 1.57809 2.542 1.57516 2.57911 1.57028C2.81153 1.53512 3.03907 1.51266 3.26173 1.49997C3.67482 1.47653 3.99122 1.12302 3.96876 0.708952C3.94435 0.294892 3.57325 -0.0342079 3.17774 0.00192205C2.91016 0.0165721 2.6377 0.0448921 2.3584 0.0859021C1.94824 0.147422 1.66602 0.529262 1.72656 0.938442C1.78222 1.31051 2.10255 1.57809 2.46778 1.57809Z" fill="#222222"/>
<path d="M1.68043 18.2908C1.67726 18.2807 1.67945 18.2706 1.67579 18.2607C1.56373 17.9565 1.50807 17.5998 1.50416 17.1222C1.55445 15.2278 2.99122 13.7192 4.55519 12.1422C4.56032 12.1373 4.5674 12.1358 4.57228 12.1308L5.13966 11.5635C5.28126 11.4209 5.43946 11.2676 5.60743 11.1055C5.90528 10.8183 5.91309 10.3437 5.62501 10.0449C5.33888 9.74803 4.86231 9.74022 4.56446 10.0273C4.38868 10.1972 4.22462 10.3564 4.07618 10.5058L4.01124 10.5707C4.00123 10.5798 3.98829 10.583 3.97853 10.5928L3.64845 10.9258C3.00343 11.5752 2.35206 12.2337 1.78004 12.9321C1.76124 12.9507 1.73683 12.9604 1.71974 12.9814C1.34962 13.4355 1.05079 13.8623 0.80861 14.2861C0.78761 14.3225 0.78468 14.3625 0.77052 14.4006C0.31715 15.2229 0.0205195 16.1145 0.000989534 17.1201C0.000749534 17.1341 0.00391953 17.1467 0.00391953 17.1606C0.00367953 17.1655 0.000989534 17.1699 0.000989534 17.1748C0.000989534 17.2908 0.0205195 17.3967 0.0278495 17.5093C0.0886395 18.5989 0.47121 19.542 1.16115 20.1777C1.50344 20.4927 1.90602 20.7115 2.33132 20.8472C2.32253 20.5942 2.33645 20.3396 2.39846 20.0859L2.4258 19.9746C2.43459 19.9375 2.44728 19.9014 2.46193 19.8662L2.66335 19.3801C2.48952 19.3076 2.32326 19.2084 2.17775 19.0742C2.00197 18.9122 1.81519 18.6545 1.68043 18.2908Z" fill="#222222"/>
<path d="M21.6055 6.61913L18.9649 3.95507C18.669 3.69335 18.2998 3.56152 17.8955 3.58984C17.502 3.61621 17.1426 3.79589 16.918 4.05957L6.34375 14.7988L6.34082 14.8017C6.16211 14.9844 6.02148 15.1973 5.9209 15.4375L3.8916 20.334C3.87695 20.3691 3.86426 20.4053 3.85547 20.4424C3.74902 20.8799 3.87305 21.3271 4.18945 21.6406C4.42578 21.875 4.73535 22 5.05761 22C5.16015 22 5.26464 21.9873 5.36816 21.9609C5.40429 21.9521 5.43945 21.9404 5.47363 21.9258L10.3184 19.8945C10.5645 19.791 10.7842 19.6426 10.9707 19.4521L21.5078 8.73241C22.1055 8.19628 22.1641 7.26561 21.6055 6.61913ZM8.12085 15.1238L15.6445 7.39611L18.1851 9.97472L10.6238 17.6647L8.12085 15.1238ZM7.18311 16.3091L9.46534 18.6257L6.9275 19.69L6.12135 18.871L7.18311 16.3091ZM19.2368 8.90514L16.6909 6.32128L17.9346 5.04394L20.4717 7.64941L19.2368 8.90514Z" fill="#222222"/>
</g>
</mask>
<g mask="url(#mask0_594_395)">
<rect width="22" height="22" fill="#222222"/>
</g>
<defs>
<clipPath id="clip0_594_395">
<rect width="22" height="22" fill="white"/>
</clipPath>
</defs>
</svg>
