<svg width="22" height="22" viewBox="0 0 22 22" fill="none" xmlns="http://www.w3.org/2000/svg">
<mask id="mask0_594_1953" style="mask-type:alpha" maskUnits="userSpaceOnUse" x="0" y="0" width="22" height="22">
<g clip-path="url(#clip0_594_1953)">
<path d="M7.63909 15.2778H1.83353V4.27781H17.7224V8.06473C18.3724 8.29147 18.989 8.60444 19.5558 8.99527V3.05559C19.5607 2.97405 19.5483 2.89239 19.5193 2.81601C19.4903 2.73963 19.4455 2.67027 19.3877 2.61251C19.33 2.55474 19.2606 2.5099 19.1842 2.48093C19.1078 2.45197 19.0262 2.43954 18.9446 2.44447H0.611311C0.529772 2.43954 0.448115 2.45197 0.371735 2.48093C0.295355 2.5099 0.225992 2.55474 0.168231 2.61251C0.110469 2.67027 0.0656229 2.73963 0.0366571 2.81601C0.0076914 2.89239 -0.00473477 2.97405 0.000199832 3.05559V16.5C-0.00473477 16.5816 0.0076914 16.6632 0.0366571 16.7396C0.0656229 16.816 0.110469 16.8853 0.168231 16.9431C0.225992 17.0009 0.295355 17.0457 0.371735 17.0747C0.448115 17.1037 0.529772 17.1161 0.611311 17.1111H7.88109C7.72337 16.5127 7.64206 15.8967 7.63909 15.2778Z" fill="#222222"/>
<path d="M15.5379 21.5596C15.3726 21.5608 15.2086 21.5293 15.0554 21.4671C14.9022 21.4048 14.7628 21.3129 14.6452 21.1967L10.001 16.5525C9.8725 16.443 9.77054 16.3057 9.70273 16.1511C9.63493 15.9964 9.60303 15.8285 9.60945 15.6597L9.97942 11.1838C10.0217 10.866 10.172 10.5724 10.4053 10.3524C10.6385 10.1324 10.9404 9.99948 11.2601 9.9759L15.5833 9.61304C15.7633 9.60395 15.9431 9.63391 16.1104 9.70087C16.2777 9.76783 16.4285 9.8702 16.5525 10.001L21.1967 14.6452C21.4292 14.884 21.5593 15.2041 21.5593 15.5374C21.5593 15.8707 21.4292 16.1908 21.1967 16.4296L16.4296 21.1968C16.3121 21.3129 16.1729 21.4047 16.0199 21.4669C15.8669 21.5292 15.7031 21.5606 15.5379 21.5596ZM11.4655 15.4246L15.5379 19.4958L19.4958 15.5379L15.4234 11.4642L11.7675 11.7698L11.4655 15.4246Z" fill="#222222"/>
<path fill-rule="evenodd" clip-rule="evenodd" d="M14.8041 13.0931C14.6349 12.9239 14.4193 12.8087 14.1846 12.762C13.9499 12.7153 13.7067 12.7392 13.4856 12.8308C13.2645 12.9224 13.0755 13.0774 12.9426 13.2764C12.8096 13.4754 12.7386 13.7093 12.7386 13.9486C12.7386 14.1879 12.8096 14.4218 12.9426 14.6208C13.0755 14.8198 13.2645 14.9749 13.4856 15.0664C13.7067 15.158 13.9499 15.182 14.1846 15.1353C14.4193 15.0886 14.6349 14.9733 14.8041 14.8041C14.9199 14.6937 15.0121 14.561 15.0751 14.414C15.1381 14.2669 15.1706 14.1086 15.1706 13.9486C15.1706 13.7886 15.1381 13.6303 15.0751 13.4833C15.0121 13.3362 14.9199 13.2035 14.8041 13.0931Z" fill="#222222"/>
</g>
</mask>
<g mask="url(#mask0_594_1953)">
<rect width="22" height="22" fill="#222222"/>
</g>
<defs>
<clipPath id="clip0_594_1953">
<rect width="22" height="22" fill="white"/>
</clipPath>
</defs>
</svg>
