<svg width="36" height="25" viewBox="0 0 36 25" fill="none" xmlns="http://www.w3.org/2000/svg">
<mask id="mask0_1950_2316" style="mask-type:alpha" maskUnits="userSpaceOnUse" x="10" y="7" width="18" height="18">
<g clip-path="url(#clip0_1950_2316)">
<path fill-rule="evenodd" clip-rule="evenodd" d="M24 15.5156V23H12V12H20.3984L19.4436 11H11.5C11.2239 11 11 11.2239 11 11.5V23.5C11 23.7761 11.2239 24 11.5 24H24.5C24.7761 24 25 23.7761 25 23.5V14.4788C24.9712 14.4768 24.9522 14.4756 24.9522 14.4756L24 15.5156Z" fill="#222222"/>
<path fill-rule="evenodd" clip-rule="evenodd" d="M26.0382 7L25.592 10.3797C25.5537 10.6694 25.6489 10.9608 25.8509 11.1721L27.9999 13.4204L24.8958 13.2199C24.6043 13.201 24.3199 13.3154 24.1226 13.5309L21.8204 16.0453L22.2627 12.6624C22.3005 12.3732 22.2054 12.0825 22.0041 11.8716L19.8584 9.62393L22.959 9.82341C23.2501 9.84213 23.534 9.72811 23.7312 9.51326L26.0382 7Z" fill="#222222"/>
<path fill-rule="evenodd" clip-rule="evenodd" d="M15.9988 20.1447L16.3423 18.0996L15.2412 16.9463C14.9947 16.6875 14.8851 16.3426 14.9078 16H13.75C13.6119 16 13.5 16.1119 13.5 16.25V21.25C13.5 21.3881 13.6119 21.5 13.75 21.5H16.8885C16.8286 21.4824 16.7682 21.4667 16.7103 21.4396C16.2161 21.2101 15.928 20.6857 15.9988 20.1447Z" fill="#222222"/>
<path fill-rule="evenodd" clip-rule="evenodd" d="M21.5387 19.665C21.5118 19.665 19.4739 19.5596 19.4739 19.5596L18.1597 21.1515C17.9836 21.3435 17.7528 21.4448 17.5112 21.5H22.4998V19.2051C22.2651 19.4907 21.9161 19.665 21.5387 19.665Z" fill="#222222"/>
<path fill-rule="evenodd" clip-rule="evenodd" d="M19.02 13.6269C19.0709 13.5713 19.1394 13.5444 19.1979 13.5H13.75C13.6119 13.5 13.5 13.6119 13.5 13.75V14.75C13.5 14.8881 13.6119 15 13.75 15H17.7971C17.9808 14.8967 19.02 13.6269 19.02 13.6269Z" fill="#222222"/>
<path fill-rule="evenodd" clip-rule="evenodd" d="M19.9408 14.472L19.6853 16.4069C19.6501 16.6738 19.7378 16.9423 19.9238 17.1369L21.1455 18.415L19.3808 18.301C19.1122 18.2837 18.8502 18.389 18.6685 18.5875L17.3504 20.0271L17.6037 18.0899C17.6385 17.8235 17.551 17.5557 17.3655 17.3615L16.1455 16.0835L17.9084 16.1969C18.1765 16.2141 18.438 16.1091 18.6197 15.9112L19.9408 14.472Z" fill="#222222"/>
</g>
</mask>
<g mask="url(#mask0_1950_2316)">
<rect x="10" y="7" width="18" height="18" fill="#222222"/>
</g>
<defs>
<clipPath id="clip0_1950_2316">
<rect width="18" height="18" fill="white" transform="translate(10 7)"/>
</clipPath>
</defs>
</svg>
