<svg width="16" height="16" viewBox="0 0 16 16" fill="none" xmlns="http://www.w3.org/2000/svg">
<mask id="mask0_585_350303" style="mask-type:alpha" maskUnits="userSpaceOnUse" x="0" y="0" width="16" height="16">
<g clip-path="url(#clip0_585_350303)">
<path fill-rule="evenodd" clip-rule="evenodd" d="M14.2222 5.43512V9.77789H11.3711L10.873 10.6668H14.8889C15.0116 10.6668 15.1111 10.5673 15.1111 10.4446V5.40234L14.2222 5.43512Z" fill="#222222"/>
<path fill-rule="evenodd" clip-rule="evenodd" d="M11.4682 8.02398C11.3683 7.96799 11.2851 7.89258 11.2106 7.80973C11.175 7.77007 11.1401 7.72993 11.1111 7.68539C11.0108 7.5312 10.949 7.35238 10.9422 7.16244L10.8965 5.89893L10.2787 7.00201C10.2561 7.04232 10.2246 7.07498 10.1973 7.11133C10.0121 7.35808 9.73028 7.51677 9.41713 7.52805L8.15356 7.57373L9.25665 8.19163C9.57035 8.36735 9.76978 8.6939 9.78269 9.05323L9.82837 10.3167L10.4462 9.21365C10.589 8.95893 10.8328 8.7857 11.1111 8.72033C11.1541 8.71024 11.1976 8.70302 11.242 8.69852C11.2644 8.69624 12.5713 8.64188 12.5713 8.64188L11.4682 8.02398Z" fill="#222222"/>
<path fill-rule="evenodd" clip-rule="evenodd" d="M1.7778 11.5554V5.33322H5.33336V4.44434H1.11114C0.988418 4.44434 0.888916 4.54378 0.888916 4.66656V12.2221C0.888916 12.3448 0.988418 12.4443 1.11114 12.4443H10.4445C10.5672 12.4443 10.6667 12.3448 10.6667 12.2221V11.5554H1.7778Z" fill="#222222"/>
<path fill-rule="evenodd" clip-rule="evenodd" d="M12.4445 11.5557V14.2223H3.55564V13.3334H2.66675V14.889C2.66675 15.0117 2.76625 15.1112 2.88897 15.1112H13.1112C13.2339 15.1112 13.3334 15.0117 13.3334 14.889V11.5557H12.4445Z" fill="#222222"/>
<path fill-rule="evenodd" clip-rule="evenodd" d="M15.8434 4.27773L14.3159 3.41309C13.8841 3.16651 13.6097 2.70833 13.5917 2.20416L13.545 0.888672L13.5288 0.431152L13.2774 0.888672L12.6783 1.979C12.4363 2.41916 11.9868 2.69895 11.4922 2.71717L9.75269 2.78129L11.2714 3.64826C11.4546 3.75297 11.6019 3.90157 11.7209 4.06986C11.8823 4.29794 11.9852 4.56705 11.9955 4.85719L12.0439 6.22199L12.0585 6.63019L12.2827 6.22199L12.9089 5.08234C13.1509 4.64218 13.6005 4.3624 14.0951 4.34417L15.8434 4.27773Z" fill="#222222"/>
<path fill-rule="evenodd" clip-rule="evenodd" d="M8.69743 9.77756H7.11106V1.77756H11.4054C11.4053 1.77761 11.4055 1.77751 11.4054 1.77756C11.4509 1.75922 11.4932 1.73389 11.5328 1.70638C11.5852 1.66444 11.6379 1.62153 11.6712 1.56081L12.0401 0.888672H6.22217C6.32167 0.888672 6.22217 0.988174 6.22217 1.11089V10.4442C6.22217 10.5669 6.32167 10.6664 6.44439 10.6664H8.72911L8.69743 9.77756Z" fill="#222222"/>
</g>
</mask>
<g mask="url(#mask0_585_350303)">
<rect width="16" height="16" fill="#222222"/>
</g>
<defs>
<clipPath id="clip0_585_350303">
<rect width="16" height="16" fill="white"/>
</clipPath>
</defs>
</svg>
