<svg width="36" height="25" viewBox="0 0 36 25" fill="none" xmlns="http://www.w3.org/2000/svg">
<mask id="mask0_2725_236138" style="mask-type:alpha" maskUnits="userSpaceOnUse" x="10" y="7" width="18" height="18">
<g clip-path="url(#clip0_2725_236138)">
<path fill-rule="evenodd" clip-rule="evenodd" d="M16.3191 12.8727C16.3704 12.6593 16.4861 12.4806 16.6279 12.3275H16.6231V11.1481C16.6231 11.0189 16.5181 10.9141 16.3889 10.9141H15.4524C15.3237 10.9135 15.219 11.0175 15.2184 11.1462V12.3275H11.4729C11.3435 12.3275 11.2388 12.4323 11.2388 12.5616V13.4979C11.2388 13.6273 11.3435 13.7321 11.4729 13.7321H16.4307C16.2974 13.4723 16.2467 13.1718 16.3191 12.8727Z" fill="#222222"/>
<path fill-rule="evenodd" clip-rule="evenodd" d="M20.6205 11.2812L20.6719 12.7027C20.6865 13.1069 20.9108 13.4743 21.2637 13.672L22.5047 14.3671L21.0832 14.4185C20.679 14.4331 20.3116 14.6574 20.114 15.0103L19.4189 16.2513L19.3675 14.8298C19.3528 14.4256 19.1285 14.0582 18.7756 13.8606L17.5347 13.1654L18.9561 13.114C19.3603 13.0994 19.7277 12.8751 19.9254 12.5222L20.6205 11.2812Z" fill="#222222"/>
<path fill-rule="evenodd" clip-rule="evenodd" d="M25.4063 7L25.4771 8.99459C25.4972 9.56179 25.806 10.0773 26.2918 10.3546L28.0002 11.33L26.0433 11.4022C25.4869 11.4227 24.9811 11.7374 24.709 12.2326L23.7521 13.9739L23.6813 11.9793C23.6612 11.4121 23.3524 10.8966 22.8666 10.6193L21.1582 9.64387L23.1151 9.57175C23.6715 9.55124 24.1773 9.2365 24.4494 8.74132L25.4063 7Z" fill="#222222"/>
<path fill-rule="evenodd" clip-rule="evenodd" d="M22.2553 16.6677C22.2425 16.604 22.2167 16.5902 22.1651 16.5902H20.4365C20.3942 16.5922 20.3606 16.6269 20.3601 16.6694C20.3709 16.9016 20.3355 17.1337 20.2561 17.3522L19.2818 20.3378C18.4805 19.7704 17.7063 19.1658 16.9716 18.5145C17.4901 17.9182 17.8933 17.1133 18.1686 16.2601L18.1182 14.876L17.1648 14.3818C17.0494 15.5015 16.6354 16.796 15.9622 17.5623C15.2607 16.9492 14.6929 16.1982 14.2944 15.3561C14.2617 15.2483 14.1644 15.1731 14.052 15.1688H13.1155C12.9852 15.1684 12.8793 15.2738 12.8789 15.404C12.8789 15.4178 12.88 15.4315 12.8823 15.4451C13.2754 16.6459 13.9898 17.7162 14.948 18.5398C14.1686 19.1553 13.3136 19.6685 12.4038 20.067C12.2874 20.1179 12.2332 20.2529 12.2822 20.3704L12.6568 21.2281C12.7108 21.3494 12.8528 21.4038 12.9741 21.3498C14.0535 20.8755 15.062 20.2537 15.9706 19.5024C16.875 20.3042 17.8323 21.0435 18.8269 21.73L18.6851 22.1641L17.7932 24.897C17.7666 24.9742 17.7932 25.0129 17.8699 25.0129H19.108C19.1686 25.0146 19.2225 24.9751 19.2388 24.9167L19.9077 22.7556H22.7454L23.4514 24.9261C23.4685 24.9775 23.5167 25.0122 23.5709 25.012H24.9509C25.0284 25.012 25.0414 24.9734 25.0284 24.9089L22.2553 16.6677ZM20.2819 21.4014C20.6431 20.2147 21.1074 18.7195 21.3137 17.8552H21.3284C21.5476 18.7701 22.128 20.5372 22.3732 21.4014H20.2819Z" fill="#222222"/>
</g>
</mask>
<g mask="url(#mask0_2725_236138)">
<rect x="10" y="7" width="18" height="18" fill="#222222"/>
</g>
<defs>
<clipPath id="clip0_2725_236138">
<rect width="18" height="18" fill="white" transform="translate(10 7)"/>
</clipPath>
</defs>
</svg>
