<svg width="16" height="16" viewBox="0 0 16 16" fill="none" xmlns="http://www.w3.org/2000/svg">
<mask id="mask0_652_69968" style="mask-type:alpha" maskUnits="userSpaceOnUse" x="0" y="0" width="16" height="16">
<path fill-rule="evenodd" clip-rule="evenodd" d="M14.5218 8.88892H13.68C13.5598 8.89093 13.4437 8.93304 13.3501 9.00856C13.2566 9.08409 13.1909 9.18871 13.1636 9.30581C12.9276 10.1633 12.471 10.9439 11.8393 11.5699C11.2076 12.1959 10.4228 12.6453 9.56327 12.8735C8.7037 13.1017 7.79935 13.1005 6.94035 12.8702C6.08135 12.6399 5.29773 12.1885 4.66758 11.5609L4.36003 11.2534L6.11736 9.49514C6.1507 9.46249 6.17716 9.42348 6.19518 9.38043C6.21319 9.33737 6.2224 9.29115 6.22225 9.24448C6.2224 9.15361 6.18776 9.06614 6.12544 9.00002C6.06312 8.9339 5.97785 8.89415 5.88714 8.88892H1.10936C1.05097 8.88915 0.995032 8.91246 0.953741 8.95375C0.912451 8.99504 0.88915 9.05097 0.888916 9.10937V13.8871C0.89414 13.9779 0.933895 14.0631 1.00002 14.1254C1.06614 14.1878 1.15361 14.2224 1.24447 14.2223C1.29084 14.2222 1.33673 14.2128 1.37946 14.1948C1.42219 14.1768 1.46091 14.1505 1.49336 14.1174L3.10136 12.5103L3.25958 12.6685C4.14855 13.5868 5.26638 14.2514 6.49781 14.5938C7.39471 14.8319 8.33062 14.8856 9.24885 14.7514C10.1671 14.6173 11.0486 14.2982 11.8399 13.8135C12.6312 13.3287 13.3159 12.6884 13.8525 11.9313C14.3891 11.1742 14.7665 10.3161 14.9618 9.40892C14.9728 9.34493 14.9697 9.27931 14.9527 9.21665C14.9356 9.154 14.9051 9.09584 14.8631 9.04628C14.8212 8.99671 14.7689 8.95693 14.7099 8.92975C14.6509 8.90256 14.5867 8.88862 14.5218 8.88892Z" fill="#222222"/>
<path fill-rule="evenodd" clip-rule="evenodd" d="M14.7555 1.77771C14.7092 1.7778 14.6633 1.78712 14.6206 1.80513C14.5778 1.82314 14.5391 1.84947 14.5067 1.8826L12.8969 3.48971L12.7387 3.33149C11.8502 2.41341 10.733 1.74881 9.50222 1.40616C8.60531 1.16802 7.6694 1.1144 6.75117 1.24853C5.83293 1.38266 4.95147 1.70176 4.16016 2.1865C3.36885 2.67125 2.68415 3.31155 2.14752 4.06864C1.6109 4.82572 1.23351 5.68385 1.03822 6.59104C1.02711 6.6554 1.03032 6.72142 1.04762 6.7844C1.06492 6.84737 1.09589 6.90577 1.13833 6.95541C1.18076 7.00506 1.23362 7.04475 1.29313 7.07165C1.35264 7.09854 1.41736 7.112 1.48266 7.11104H2.31999C2.44022 7.10904 2.55633 7.06693 2.6499 6.9914C2.74346 6.91587 2.80912 6.81126 2.83644 6.69416C3.07241 5.8367 3.52901 5.05607 4.16072 4.43008C4.79243 3.8041 5.57718 3.35462 6.43675 3.12647C7.29632 2.89831 8.20068 2.89944 9.05967 3.12974C9.91867 3.36005 10.7023 3.81148 11.3324 4.43904L11.64 4.7466L9.88266 6.50482C9.84928 6.53745 9.82279 6.57645 9.80477 6.61951C9.78676 6.66257 9.77757 6.70881 9.77777 6.75549C9.77762 6.84635 9.81226 6.93382 9.87458 6.99994C9.9369 7.06607 10.0222 7.10582 10.1129 7.11104H14.8907C14.949 7.11058 15.0048 7.08721 15.046 7.04596C15.0873 7.00472 15.1106 6.94892 15.1111 6.8906V2.11282C15.1059 2.02211 15.0661 1.93684 15 1.87452C14.9339 1.8122 14.8464 1.77756 14.7555 1.77771Z" fill="#222222"/>
</mask>
<g mask="url(#mask0_652_69968)">
<rect width="16" height="16" fill="#222222"/>
</g>
</svg>
