<svg width="22" height="22" viewBox="0 0 22 22" fill="none" xmlns="http://www.w3.org/2000/svg">
<mask id="mask0_606_3161" style="mask-type:alpha" maskUnits="userSpaceOnUse" x="0" y="0" width="22" height="22">
<path d="M15.4023 15.8638H6.8467C6.5092 15.8638 6.23559 15.5902 6.23559 15.2527V10.3376C6.23559 10.0001 6.5092 9.72646 6.8467 9.72646H15.4023C15.7398 9.72646 16.0134 10.0001 16.0134 10.3376V15.2527C16.0134 15.5902 15.7398 15.8638 15.4023 15.8638ZM8.06892 14.0305H14.18V11.5598H8.06892V14.0305ZM18.8051 4.07666L15.4595 0.74151C14.9873 0.270343 14.3305 0 13.6575 0H8.22673C8.85992 0.492653 9.37659 1.11629 9.74525 1.83691H12.2365V6.38922C12.2365 6.89649 12.6474 7.30767 13.1537 7.30767H17.7213V17.9054C17.7243 18.4685 17.2543 18.9325 16.6859 18.9409H5.32782C4.74625 18.9325 4.27568 18.4685 4.27867 17.9007V9.76345C3.62458 9.69125 3.0087 9.5122 2.44444 9.23112V17.8959C2.43549 19.4625 3.71739 20.7551 5.3147 20.7778H16.699C18.2832 20.7551 19.5645 19.4625 19.5556 17.9007V5.88702C19.5591 5.2031 19.2922 4.55976 18.8051 4.07666ZM14.0708 5.47106V1.98075C14.1015 2.00253 14.1382 2.01596 14.1651 2.04252L17.5123 5.38005C17.539 5.40661 17.552 5.44152 17.5739 5.47106H14.0708ZM3.08457 7.03058L3.10722 6.42093C3.11974 6.0837 3.40326 5.82045 3.74051 5.83293L5.27462 5.88971L1.08615 1.7011C0.847498 1.46245 0.84751 1.07552 1.08615 0.836868L1.51813 0.404886C1.75678 0.166234 2.14373 0.166234 2.38238 0.404886L6.57022 4.59287L6.51615 3.14314C6.50358 2.80598 6.76661 2.52242 7.10376 2.50969L7.71447 2.48661C8.05189 2.47386 8.3357 2.73717 8.34823 3.0746L8.501 7.18636C8.5142 7.54149 8.22275 7.83293 7.86764 7.81974L3.67255 7.66395C3.33527 7.65142 3.07204 7.36785 3.08457 7.03058Z" fill="#222222"/>
</mask>
<g mask="url(#mask0_606_3161)">
<rect width="22" height="22" fill="#222222"/>
</g>
</svg>
