<svg width="22" height="22" viewBox="0 0 22 22" fill="none" xmlns="http://www.w3.org/2000/svg">
<mask id="mask0_594_4508" style="mask-type:alpha" maskUnits="userSpaceOnUse" x="0" y="0" width="22" height="22">
<g clip-path="url(#clip0_594_4508)">
<path fill-rule="evenodd" clip-rule="evenodd" d="M16.5563 15.3044C17.2322 15.3044 17.7786 15.8508 17.7786 16.5267C17.7786 17.2013 17.2322 17.7489 16.5563 17.7489C15.8804 17.7489 15.3341 17.2013 15.3341 16.5267C15.3341 15.8508 15.8804 15.3044 16.5563 15.3044Z" fill="#222222"/>
<path fill-rule="evenodd" clip-rule="evenodd" d="M14.773 18.6061C14.9319 18.6061 15.0932 18.6488 15.2374 18.7381C15.4477 18.864 15.6774 18.9605 15.9133 19.018C16.2421 19.1035 16.4804 19.3528 16.555 19.6596C16.6271 19.3577 16.8654 19.106 17.1881 19.0216C17.4338 18.9605 17.6648 18.8652 17.886 18.7332C18.1634 18.5596 18.5167 18.5657 18.7917 18.7344C18.6254 18.4643 18.6181 18.1172 18.7868 17.8324C18.92 17.6136 19.0165 17.3826 19.0764 17.1418C19.1424 16.8302 19.4015 16.5772 19.7218 16.5002C19.4003 16.4232 19.1412 16.1677 19.0703 15.8353C19.0165 15.619 18.92 15.388 18.7904 15.1753C18.6181 14.8844 18.6254 14.5324 18.7953 14.2586C18.524 14.4273 18.1793 14.4371 17.9019 14.2794C17.6697 14.1388 17.4387 14.0423 17.1942 13.9812C16.885 13.914 16.6344 13.6585 16.5574 13.3407C16.4829 13.6536 16.2274 13.914 15.8913 13.9873C15.6725 14.0301 15.4525 14.1498 15.1971 14.2867C14.927 14.4407 14.5872 14.4273 14.3195 14.2623C14.4919 14.5422 14.4955 14.8954 14.3183 15.1826C14.1937 15.3855 14.0983 15.6177 14.0348 15.8634C13.97 16.1726 13.7109 16.4244 13.3907 16.5002C13.7109 16.5784 13.9712 16.8351 14.0421 17.1663C14.0983 17.3838 14.1937 17.6161 14.3232 17.8275C14.4955 18.1062 14.4919 18.457 14.3232 18.7332C14.4577 18.6488 14.6141 18.6061 14.773 18.6061ZM16.8483 21.7521H16.2641C15.5955 21.7521 15.0529 21.2082 15.0529 20.5396V20.3441C15.0015 20.3245 14.9527 20.305 14.9025 20.2817L14.7669 20.4186C14.289 20.8916 13.5227 20.8904 13.0521 20.4223L12.6365 20.008C12.1648 19.5337 12.166 18.765 12.6365 18.2932L12.7747 18.1551C12.7539 18.1062 12.7319 18.0548 12.7123 18.0047H12.518C11.8494 18.0047 11.3055 17.4608 11.3055 16.7923V16.2093C11.3055 15.8866 11.4375 15.5737 11.6661 15.3476C11.8837 15.1276 12.1965 14.9968 12.518 14.9968H12.7123C12.7331 14.9467 12.7539 14.8966 12.7747 14.8477L12.639 14.7121C12.1648 14.2354 12.1648 13.4666 12.6365 12.9936L13.0509 12.5817C13.5165 12.1173 14.3183 12.1246 14.7693 12.5842L14.9038 12.7211C14.9527 12.6978 15.0015 12.6746 15.0529 12.6551V12.4632C15.0529 12.1381 15.1788 11.8337 15.4073 11.604C15.6359 11.3766 15.9402 11.2495 16.2641 11.2495H16.8483C17.5169 11.2495 18.0608 11.7946 18.0608 12.4632V12.6587C18.1109 12.6771 18.1598 12.6978 18.2099 12.7198L18.3455 12.5817C18.8051 12.1222 19.6179 12.1258 20.0701 12.5903L20.4747 12.9936C20.7044 13.2246 20.8303 13.529 20.8303 13.8516C20.8303 14.1767 20.7044 14.4811 20.4747 14.7108L20.339 14.8465C20.3598 14.8966 20.3805 14.9467 20.4001 14.9968H20.5944C21.263 14.9968 21.8069 15.5407 21.8069 16.2093V16.7923C21.8069 17.4608 21.263 18.0047 20.5944 18.0047H20.4001C20.3805 18.0561 20.3585 18.1062 20.3378 18.1563L20.4759 18.2956C20.7032 18.5193 20.8303 18.8248 20.8303 19.15C20.8303 19.4738 20.7044 19.7782 20.4747 20.008L20.0628 20.4198C19.5885 20.8916 18.821 20.8916 18.3492 20.4223L18.2099 20.2817C18.1598 20.3037 18.1097 20.3233 18.0608 20.3441V20.5396C18.0608 21.2082 17.5169 21.7521 16.8483 21.7521Z" fill="#222222"/>
<path d="M17.6363 3.83149L14.5545 0.707906C14.0985 0.247177 13.4898 -0.00585938 12.8417 -0.00585938H3.92446C2.42771 0.0156273 1.21504 1.25098 1.2222 2.74414V18.0171C1.21504 19.5163 2.42771 20.7516 3.93759 20.7719H11.3094C10.8606 20.2271 10.5017 19.6074 10.2409 18.9386H3.94953C3.4542 18.9326 3.05315 18.5232 3.05553 18.0219V2.73936C3.05315 2.24403 3.45419 1.83464 3.93759 1.82747H11V6.41677C11 6.92285 11.4106 7.33344 11.9166 7.33344H16.5095V9.77863C17.146 9.77952 17.7595 9.87411 18.3429 10.0402V5.56098C18.3464 4.91646 18.0874 4.28505 17.6363 3.83149ZM12.8333 1.82747H12.8393C12.9646 1.7845 13.1424 1.88716 13.2511 1.99696L16.3341 5.12174C16.4331 5.222 16.4868 5.35687 16.4991 5.50011H12.8333L12.8333 1.82747Z" fill="#222222"/>
</g>
</mask>
<g mask="url(#mask0_594_4508)">
<rect width="22" height="22" fill="#222222"/>
</g>
<defs>
<clipPath id="clip0_594_4508">
<rect width="22" height="22" fill="white"/>
</clipPath>
</defs>
</svg>
