<svg width="18" height="18" viewBox="0 0 18 18" fill="none" xmlns="http://www.w3.org/2000/svg">
<path d="M9 6C13.4183 6 17 4.88071 17 3.5C17 2.11929 13.4183 1 9 1C4.58172 1 1 2.11929 1 3.5C1 4.88071 4.58172 6 9 6Z" fill="#222222"/>
<path fill-rule="evenodd" clip-rule="evenodd" d="M8.5 15.5L6.3955 15.4945C6.1535 15.4945 5.91672 15.4242 5.71388 15.2922C5.51105 15.1602 5.35089 14.9722 5.25284 14.751C5.15479 14.5297 5.12307 14.2848 5.16153 14.0459C5.19999 13.8069 5.30697 13.5843 5.4695 13.405L6.728 12.012C4.3645 11.774 1.6605 11.183 1 10.135V14.5C1 15.828 4.316 16.911 8.5 16.992V15.5Z" fill="#222222"/>
<path fill-rule="evenodd" clip-rule="evenodd" d="M16.15 9.61751C16.6885 9.28101 17 8.90001 17 8.50001V5.13501C16.0264 6.01679 14.7989 6.56823 13.493 6.71051L16.15 9.61751Z" fill="#222222"/>
<path fill-rule="evenodd" clip-rule="evenodd" d="M11.228 7.03151C10.4185 7.10501 9.646 7.13751 9 7.13751C6.532 7.13751 1.894 6.55351 1 5.13751V8.50001C1 9.73951 3.889 10.7655 7.676 10.963L11.228 7.03151Z" fill="#222222"/>
<path fill-rule="evenodd" clip-rule="evenodd" d="M17.573 13.573C17.608 13.6079 17.6319 13.6525 17.6416 13.701C17.6513 13.7495 17.6464 13.7998 17.6275 13.8455C17.6086 13.8912 17.5765 13.9303 17.5354 13.9578C17.4943 13.9853 17.446 14 17.3965 14H15V18H9.99999V14H7.60349C7.55403 14 7.50567 13.9853 7.46456 13.9578C7.42344 13.9303 7.3914 13.8912 7.37251 13.8455C7.35361 13.7998 7.3487 13.7495 7.3584 13.701C7.3681 13.6525 7.39197 13.6079 7.42699 13.573L12.5 8L17.573 13.573Z" fill="#222222"/>
</svg>
