<svg width="22" height="22" viewBox="0 0 22 22" fill="none" xmlns="http://www.w3.org/2000/svg">
<mask id="mask0_606_5192" style="mask-type:alpha" maskUnits="userSpaceOnUse" x="0" y="0" width="22" height="22">
<g clip-path="url(#clip0_606_5192)">
<path d="M15.8987 14.4831C15.5914 15.5278 15.0461 16.487 14.3055 17.2855C13.565 18.0839 12.6494 18.6997 11.6307 19.0846C12.3517 17.444 12.7601 15.6833 12.8349 13.8929C11.595 13.3975 10.4936 12.6089 9.62534 11.5946H7.20911C7.32406 10.4495 7.55184 9.3186 7.88915 8.2183C7.51358 6.73948 7.56144 5.18485 8.02726 3.73193C6.41141 3.94182 4.88478 4.59338 3.61534 5.61492C2.3459 6.63646 1.38286 7.98838 0.832184 9.52192C0.281506 11.0555 0.164536 12.7112 0.494143 14.3069C0.823751 15.9027 1.58716 17.3766 2.70037 18.5664C3.81359 19.7563 5.23345 20.616 6.80374 21.051C8.37403 21.4859 10.0339 21.4793 11.6006 21.0318C13.1674 20.5843 14.5804 19.7133 15.684 18.5146C16.7877 17.3159 17.5394 15.836 17.8562 14.2376C17.2159 14.3975 16.5587 14.4799 15.8987 14.4831ZM2.20564 13.428H5.29664C5.32548 15.3506 5.73553 17.2484 6.50305 19.0115C5.35937 18.5404 4.36 17.7762 3.60557 16.796C2.85115 15.8158 2.3683 14.6541 2.20564 13.428ZM5.35265 11.5946H2.20564C2.37406 10.3299 2.88322 9.13477 3.67862 8.13716C4.47402 7.13954 5.52572 6.37698 6.72117 5.9311C5.99016 7.74176 5.52907 9.64996 5.35265 11.5946ZM9.30921 19.5319C9.26131 19.5328 9.21477 19.5391 9.16665 19.5391C9.05968 19.5391 8.95553 19.5277 8.84975 19.5229C7.76467 17.6725 7.17662 15.5728 7.14272 13.428H11.021C10.987 15.5763 10.3973 17.6792 9.30921 19.5319Z" fill="#222222"/>
<path fill-rule="evenodd" clip-rule="evenodd" d="M14.9536 4.02497C14.7827 3.85404 14.5649 3.73764 14.3278 3.69048C14.0908 3.64332 13.845 3.66752 13.6217 3.76003C13.3984 3.85254 13.2075 4.00919 13.0732 4.21019C12.9389 4.41118 12.8672 4.64748 12.8672 4.88922C12.8672 5.13095 12.9389 5.36725 13.0732 5.56824C13.2075 5.76924 13.3984 5.92589 13.6217 6.0184C13.845 6.11091 14.0908 6.13511 14.3278 6.08795C14.5649 6.04079 14.7827 5.92439 14.9536 5.75346C15.1827 5.52419 15.3114 5.21333 15.3114 4.88922C15.3114 4.5651 15.1827 4.25424 14.9536 4.02497Z" fill="#222222"/>
<path fill-rule="evenodd" clip-rule="evenodd" d="M18.6037 4.02449C18.4328 3.85356 18.215 3.73715 17.9779 3.68999C17.7409 3.64283 17.4951 3.66703 17.2718 3.75954C17.0484 3.85205 16.8576 4.0087 16.7233 4.2097C16.589 4.41069 16.5173 4.64699 16.5173 4.88873C16.5173 5.13046 16.589 5.36676 16.7233 5.56776C16.8576 5.76875 17.0484 5.92541 17.2718 6.01791C17.4951 6.11042 17.7409 6.13462 17.9779 6.08746C18.215 6.0403 18.4328 5.9239 18.6037 5.75297C18.8328 5.5237 18.9615 5.21284 18.9615 4.88873C18.9615 4.56461 18.8328 4.25376 18.6037 4.02449Z" fill="#222222"/>
<path d="M13.8908 12.8024C13.7433 12.8025 13.5973 12.7733 13.4611 12.7164C13.2702 12.6347 13.1075 12.4985 12.9935 12.3249C12.8795 12.1512 12.8192 11.9478 12.8202 11.7401V10.0942H12.1279C11.5922 10.0705 11.0814 9.86169 10.6825 9.50334C10.4919 9.31285 10.3408 9.08656 10.238 8.83747C10.1352 8.58838 10.0826 8.32142 10.0833 8.05195L10.0964 2.02677C10.0977 1.75688 10.1523 1.48989 10.2572 1.24121C10.3621 0.992523 10.5151 0.767049 10.7076 0.577778C10.8954 0.391318 11.1182 0.243697 11.3632 0.143346C11.6081 0.0429951 11.8704 -0.00812003 12.1351 -0.00707993H19.6606C19.9271 -0.0144998 20.1922 0.0345152 20.4384 0.136749C20.6846 0.238982 20.9065 0.392124 21.0893 0.586126C21.472 0.969981 21.6874 1.48955 21.6885 2.03155L21.6957 8.05673C21.6975 8.3235 21.6466 8.588 21.5458 8.83502C21.4451 9.08204 21.2964 9.30669 21.1085 9.49605C20.9206 9.68541 20.6971 9.83574 20.4509 9.93839C20.2046 10.041 19.9405 10.094 19.6737 10.0942H17.4883L14.5652 12.547C14.3821 12.7165 14.1403 12.8081 13.8908 12.8024ZM13.4122 11.123C13.3868 11.1428 13.3625 11.1639 13.3394 11.1863L13.4122 11.123ZM13.7369 8.26085H14.6535V10.0798L16.8199 8.26083H19.6606C19.6878 8.26492 19.7156 8.26191 19.7414 8.25208C19.7671 8.24225 19.7898 8.22594 19.8074 8.20473C19.8253 8.18694 19.8393 8.16571 19.8488 8.14232C19.8582 8.11893 19.8628 8.09387 19.8623 8.06866L19.8551 2.03275C19.8554 2.00572 19.8503 1.9789 19.8401 1.95388C19.8298 1.92887 19.8146 1.90617 19.7955 1.88713C19.7636 1.85145 19.719 1.82961 19.6713 1.82625H12.1363C12.1098 1.82607 12.0834 1.83114 12.0588 1.84118C12.0342 1.85122 12.0119 1.86603 11.993 1.88475C11.973 1.90385 11.9571 1.92682 11.9462 1.95226C11.9353 1.9777 11.9298 2.00509 11.9298 2.03276L11.9167 8.05791C11.9162 8.08441 11.921 8.11073 11.9309 8.13533C11.9407 8.15993 11.9553 8.18233 11.974 8.20119C11.9903 8.2231 12.0122 8.24021 12.0374 8.25071C12.0626 8.26121 12.0901 8.26472 12.1172 8.26087L13.7369 8.26085Z" fill="#222222"/>
</g>
</mask>
<g mask="url(#mask0_606_5192)">
<rect width="22" height="22" fill="#222222"/>
</g>
<defs>
<clipPath id="clip0_606_5192">
<rect width="22" height="22" fill="white"/>
</clipPath>
</defs>
</svg>
