<svg width="22" height="22" viewBox="0 0 22 22" fill="none" xmlns="http://www.w3.org/2000/svg">
<mask id="mask0_614_3588" style="mask-type:alpha" maskUnits="userSpaceOnUse" x="0" y="0" width="22" height="22">
<path d="M17.325 19.8H4.67501C3.31076 19.8 2.20001 18.6892 2.20001 17.325V4.67495C2.20001 3.3107 3.31076 2.19995 4.67501 2.19995H17.325C18.6893 2.19995 19.8 3.3107 19.8 4.67495V17.325C19.8 18.6892 18.6893 19.8 17.325 19.8ZM4.67501 3.84995C4.22061 3.84995 3.85001 4.22055 3.85001 4.67495V17.325C3.85001 17.7794 4.22061 18.15 4.67501 18.15H17.325C17.7794 18.15 18.15 17.7794 18.15 17.325V4.67495C18.15 4.22055 17.7794 3.84995 17.325 3.84995H4.67501Z" fill="#292929"/>
<path d="M14.3804 10.031L9.32071 7.31168C8.58788 6.91782 7.69995 7.44865 7.69995 8.28062V13.7193C7.69995 14.5512 8.58788 15.0821 9.32071 14.6882L14.3804 11.9689C15.1527 11.5538 15.1527 10.4461 14.3804 10.031Z" fill="#292929"/>
</mask>
<g mask="url(#mask0_614_3588)">
<rect width="22" height="22" fill="#222222"/>
</g>
</svg>
